<svg width="292" height="144" viewBox="0 0 292 144" fill="none" xmlns="http://www.w3.org/2000/svg">
<g filter="url(#filter0_d_1345_11926)">
<path fill-rule="evenodd" clip-rule="evenodd" d="M38.468 96.6723C55.295 96.6723 68.936 83.0313 68.936 66.2043C68.936 49.3773 55.295 35.7363 38.468 35.7363C21.641 35.7363 8 49.3773 8 66.2043C8 83.0313 21.641 96.6723 38.468 96.6723ZM38.4693 76.3632C44.0783 76.3632 48.6253 71.8162 48.6253 66.2072C48.6253 60.5982 44.0783 56.0512 38.4693 56.0512C32.8603 56.0512 28.3133 60.5982 28.3133 66.2072C28.3133 71.8162 32.8603 76.3632 38.4693 76.3632Z" fill="white"/>
<path fill-rule="evenodd" clip-rule="evenodd" d="M34.7341 5.09444C37.1662 3.63519 40.2046 3.63519 42.6367 5.09444L61.8363 16.6142C65.4734 18.7965 66.6527 23.5139 64.4705 27.1509C62.2883 30.788 57.5708 31.9673 53.9338 29.7851L38.6854 20.6361L23.437 29.7851C19.7999 31.9673 15.0825 30.788 12.9003 27.1509C10.7181 23.5139 11.8974 18.7965 15.5345 16.6142L34.7341 5.09444Z" fill="white"/>
<path d="M108.873 83.9279C115.451 83.9279 121.747 80.4246 124.558 74.4915L117.868 70.7056C116.125 73.9829 113.09 76.0736 108.536 76.0736C102.184 76.0736 97.6863 71.0446 97.6863 64.1509C97.6863 57.2572 102.24 52.2282 108.536 52.2282C113.09 52.2282 116.013 54.3189 117.868 57.5963L124.558 53.8104C121.747 47.8773 115.451 44.3739 108.873 44.3739C97.855 44.3739 89.2539 53.1323 89.2539 64.1509C89.2539 75.1695 97.855 83.9279 108.873 83.9279Z" fill="white"/>
<path d="M139.452 83.8714C143.275 83.8714 146.31 82.3458 148.278 79.8595V83.1369H155.867V69.0669C155.867 60.6476 149.458 54.3189 140.745 54.3189C132.2 54.3189 125.679 61.0431 125.679 69.0669C125.679 77.2038 131.357 83.8714 139.452 83.8714ZM140.745 76.3562C136.641 76.3562 133.662 73.0788 133.662 69.1234C133.662 65.168 136.641 61.8907 140.745 61.8907C144.849 61.8907 147.884 65.168 147.884 69.1234C147.884 73.0788 144.849 76.3562 140.745 76.3562Z" fill="white"/>
<path d="M173.117 83.9279C181.718 83.9279 188.183 77.2603 188.183 69.1799C188.183 60.4781 182.224 54.3754 173.567 54.3754C170.756 54.3754 168.114 55.3925 166.034 56.9747V42.2832H158.051V69.1799C158.051 77.6558 164.46 83.9279 173.117 83.9279ZM173.117 76.3562C169.014 76.3562 166.034 73.1353 166.034 69.1799C166.034 65.2245 169.014 61.9472 173.117 61.9472C177.221 61.9472 180.201 65.2245 180.201 69.1799C180.201 73.1353 177.221 76.3562 173.117 76.3562Z" fill="white"/>
<path d="M203.635 83.8714C207.458 83.8714 210.493 82.3458 212.461 79.8595V83.1369H220.05V69.0669C220.05 60.6476 213.641 54.3189 204.928 54.3189C196.383 54.3189 189.862 61.0431 189.862 69.0669C189.862 77.2038 195.54 83.8714 203.635 83.8714ZM204.928 76.3562C200.824 76.3562 197.845 73.0788 197.845 69.1234C197.845 65.168 200.824 61.8907 204.928 61.8907C209.032 61.8907 212.067 65.168 212.067 69.1234C212.067 73.0788 209.032 76.3562 204.928 76.3562Z" fill="white"/>
<path d="M237.3 62.1732C241.854 62.1732 243.934 65.8461 243.934 70.1405V83.1369H251.917V69.1799C251.917 60.9866 247.026 54.3754 237.3 54.3754C227.575 54.3754 222.797 61.0431 222.797 69.1799V83.1369H230.779V70.1405C230.779 65.8461 232.803 62.1732 237.3 62.1732Z" fill="white"/>
<path d="M267.585 83.8714C271.408 83.8714 274.444 82.3458 276.411 79.8595V83.1369H284V69.0669C284 60.6476 277.592 54.3189 268.878 54.3189C260.333 54.3189 253.812 61.0431 253.812 69.0669C253.812 77.2038 259.49 83.8714 267.585 83.8714ZM268.878 76.3562C264.774 76.3562 261.795 73.0788 261.795 69.1234C261.795 65.168 264.774 61.8907 268.878 61.8907C272.982 61.8907 276.018 65.168 276.018 69.1234C276.018 73.0788 272.982 76.3562 268.878 76.3562Z" fill="white"/>
<path d="M99.5604 96.8808H94.3809V126.232C94.3809 129.126 95.7011 130.903 99.1542 130.903H116.47V126.13H99.5604V96.8808Z" fill="white"/>
<path d="M129.453 131.513C133.515 131.513 136.816 129.583 138.695 126.536V130.903H143.468V118.412C143.468 110.998 137.73 105.412 130.214 105.412C122.648 105.412 116.961 111.302 116.961 118.412C116.961 125.622 122.242 131.513 129.453 131.513ZM130.214 126.739C125.593 126.739 121.988 122.982 121.988 118.462C121.988 113.892 125.593 110.134 130.214 110.134C134.886 110.134 138.441 113.892 138.441 118.462C138.441 122.982 134.886 126.739 130.214 126.739Z" fill="white"/>
<path d="M161.384 131.513C168.899 131.513 174.587 125.673 174.587 118.513C174.587 110.947 169.153 105.412 161.587 105.412C158.235 105.412 155.189 106.884 153.157 109.119V94.5957H148.13V118.513C148.13 125.876 153.868 131.513 161.384 131.513ZM161.384 126.79C156.712 126.79 153.157 123.032 153.157 118.462C153.157 113.943 156.712 110.185 161.384 110.185C166.005 110.185 169.559 113.943 169.559 118.462C169.559 123.032 166.005 126.79 161.384 126.79Z" fill="white"/>
<path d="M186.663 131.462C191.944 131.462 196.514 128.466 196.514 123.743C196.514 114.349 182.245 118.056 182.245 112.978C182.245 110.998 184.276 109.779 186.612 109.779C188.897 109.779 190.928 110.541 191.995 112.724L195.854 110.541C194.28 107.646 191.131 105.513 186.51 105.513C181.077 105.513 177.218 108.713 177.218 113.08C177.218 122.575 191.487 118.615 191.487 123.845C191.487 126.028 189.303 127.196 186.46 127.196C183.717 127.196 181.686 126.282 180.417 123.794L176.557 125.927C178.487 129.634 182.042 131.462 186.663 131.462Z" fill="white"/>
</g>
<defs>
<filter id="filter0_d_1345_11926" x="0" y="0" width="292" height="143.513" filterUnits="userSpaceOnUse" color-interpolation-filters="sRGB">
<feFlood flood-opacity="0" result="BackgroundImageFix"/>
<feColorMatrix in="SourceAlpha" type="matrix" values="0 0 0 0 0 0 0 0 0 0 0 0 0 0 0 0 0 0 127 0" result="hardAlpha"/>
<feOffset dy="4"/>
<feGaussianBlur stdDeviation="4"/>
<feComposite in2="hardAlpha" operator="out"/>
<feColorMatrix type="matrix" values="0 0 0 0 0 0 0 0 0 0 0 0 0 0 0 0 0 0 0.16 0"/>
<feBlend mode="normal" in2="BackgroundImageFix" result="effect1_dropShadow_1345_11926"/>
<feBlend mode="normal" in="SourceGraphic" in2="effect1_dropShadow_1345_11926" result="shape"/>
</filter>
</defs>
</svg>
