<svg xmlns="http://www.w3.org/2000/svg" width="2734" height="2476" fill="none" viewBox="0 0 2734 2476">
  <mask id="b" width="2452" height="1896" x="198" y="457" maskUnits="userSpaceOnUse" style="mask-type:alpha">
    <path fill="url(#a)" d="M2649.85 1035.61c-157.8 566.2-359.21 1288.45-364.83 1317.27L198.915 1775.11 563.746 457.846 2649.85 1035.61Z"/>
  </mask>
  <g mask="url(#b)">
    <path fill="#E830CE" d="M1458.18 1930.02c-235.29-65.16-376.92-322.82-326.55-504.7 50.37-181.87 211.72-394.17 464.16-324.26 125.1 34.65 310.66-44.86 434.2 86.87 125.77 134.1 22.66 372.63-2.75 464.38-50.37 181.88-333.78 342.88-569.06 277.71Z"/>
    <g filter="url(#c)">
      <path fill="#E830CE" d="M1465.31 1915.23c-252.33-69.88-384.63-294.28-341.33-450.62 43.3-156.33 195.32-335.13 447.66-265.24 125.05 34.63 306.95-31.89 433.95 87.11 129.28 121.14 35.84 324.83 14 403.7-43.3 156.33-301.94 294.94-554.28 225.05Z"/>
    </g>
    <g filter="url(#d)">
      <path fill="#E830CE" d="M1457.67 1913.11c-282.82-78.33-425.68-349.38-372.3-542.12 53.38-192.75 230.14-416.133 512.96-337.8 140.16 38.81 352.37-65.866 492.3 76.23 142.44 144.65 26.58 413.16-.35 510.39-53.38 192.74-349.78 371.63-632.61 293.3Z"/>
    </g>
    <g filter="url(#e)">
      <path fill="#E830CE" d="M1431.35 1881.24c-336.08-143.99-556.084-474.08-493.608-699.66 62.478-225.581 307.248-420.359 646.438-326.417 168.08 46.552 452.25-139.461 620.84 28.182 171.61 170.655 40.18 465.515 8.66 579.305-62.48 225.58-392.99 585.39-782.33 418.59Z"/>
    </g>
    <g filter="url(#f)">
      <path fill="#E830CE" d="M1338.99 1757.36c-365.215-101.15-599.132-478.87-538.048-699.42 61.084-220.553 317.948-406.128 683.168-304.978 180.98 50.125 424.04 26.816 608.64 196.199 187.92 172.429 54.84 459.449 24.03 570.699-61.09 220.55-412.57 338.65-777.79 237.5Z"/>
    </g>
    <g filter="url(#g)">
      <path fill="#E830CE" d="M1495.16 1744.45c-330.24-91.47-532.211-467.47-469.73-693.05 62.47-225.582 302.57-421.655 632.81-330.192 163.65 45.325 378.97 40.353 542.29 206.536 166.25 169.166 36.04 464.366 4.52 578.166-62.48 225.58-379.65 330-709.89 238.54Z"/>
    </g>
  </g>
  <mask id="i" width="1595" height="2223" x="775" y="76" maskUnits="userSpaceOnUse" style="mask-type:alpha">
    <path fill="url(#h)" d="m775.387 2298.99 1454.253-199.14 139.57-1110.123-43.57-388.546-714.9-524.901-631.481 118.246L833.605 1358.13l-58.218 940.86Z"/>
  </mask>
  <g mask="url(#i)">
    <mask id="k" width="1677" height="2254" x="751" y="93" maskUnits="userSpaceOnUse" style="mask-type:alpha">
      <path fill="url(#j)" d="M1020.05 93.625c657.1 83.151 1374.27 174.18 1407.27 176.155l-268.87 2076.7-1407.274-176.15L1020.05 93.625Z"/>
    </mask>
    <g mask="url(#k)">
      <path fill="#46A1D4" d="M2174.53 1090.55c-28.49 227.6-287.81 389.49-498.83 363.07-211.02-26.41-476.41-153.2-445.84-397.39 15.14-121.012-107.52-285.595 15.55-416.209 125.29-132.96 408.93-63.657 515.38-50.332 211.02 26.414 442.23 273.268 413.74 500.861Z"/>
      <g filter="url(#l)">
        <path fill="#46A1D4" d="M2156.8 1085.56c-30.56 244.09-235.16 395.91-398.99 375.4-163.82-20.51-367.29-139.51-336.74-383.6 15.14-120.96-80.25-282.068 19.33-415.564 101.35-135.895 320.63-74.662 403.27-64.317 163.83 20.507 343.68 243.994 313.13 488.081Z"/>
      </g>
      <g filter="url(#m)">
        <path fill="#46A1D4" d="M2155.88 1092.96c-34.25 273.57-284.4 441.12-486.69 415.8-202.29-25.32-454.84-161.77-420.6-435.35 16.97-135.57-121.76-320.123-.86-468.582 123.07-151.127 411.42-77.167 513.46-64.393 202.3 25.322 428.93 278.944 394.69 552.525Z"/>
      </g>
      <g filter="url(#n)">
        <path fill="#46A1D4" d="M2085.83 1116.37c-97.13 330.9-422.19 574.38-683.92 541.62-261.72-32.76-523.198-239.62-482.128-567.72 20.353-162.587-238.734-407.305-84.221-584.162 157.288-180.034 632.859-100.717 764.889-84.191 261.72 32.762 597.9 311.12 485.38 694.453Z"/>
      </g>
      <g filter="url(#o)">
        <path fill="#46A1D4" d="M2008.43 1196.53c-44.22 353.28-422.66 640.44-678.55 608.41-255.89-32.03-509.408-251.25-465.186-604.53 21.914-175.07-49.135-399.857 104.328-591.901 156.218-195.494 699.728-232.325 828.808-216.167 255.89 32.031 254.82 450.91 210.6 804.188Z"/>
      </g>
      <g filter="url(#p)">
        <path fill="#46A1D4" d="M1885.92 1346.48c-45.7 365.08-429.94 636.2-691.66 603.44-261.725-32.76-520.784-258.93-475.085-624.01 22.647-180.92 410.535-406.728 567.775-605.357 160.06-202.197 510.79-107.762 642.82-91.236 261.72 32.761 1.84 352.081-43.85 717.163Z"/>
      </g>
      <g filter="url(#q)">
        <path fill="#46A1D4" d="M1961.91 1077.09c-39.99 319.45-419.31 551.29-681.03 518.53-261.72-32.76-523.767-235.09-483.78-554.54 19.815-158.303-25.744-359.225 128.13-530.985 156.64-174.847 508.15-86.631 640.17-70.105 261.73 32.762 436.49 317.658 396.51 637.1Z"/>
      </g>
    </g>
  </g>
  <defs>
    <filter id="c" width="970.867" height="764.086" x="1108.84" y="1176.76" color-interpolation-filters="sRGB" filterUnits="userSpaceOnUse">
      <feFlood flood-opacity="0" result="BackgroundImageFix"/>
      <feBlend in="SourceGraphic" in2="BackgroundImageFix" result="shape"/>
      <feGaussianBlur result="effect1_foregroundBlur_9391_46376" stdDeviation="3.512"/>
    </filter>
    <filter id="d" width="1135.09" height="964.017" x="1049.75" y="992.533" color-interpolation-filters="sRGB" filterUnits="userSpaceOnUse">
      <feFlood flood-opacity="0" result="BackgroundImageFix"/>
      <feBlend in="SourceGraphic" in2="BackgroundImageFix" result="shape"/>
      <feGaussianBlur result="effect1_foregroundBlur_9391_46376" stdDeviation="12.292"/>
    </filter>
    <filter id="e" width="1434.59" height="1182.39" x="892.021" y="776.713" color-interpolation-filters="sRGB" filterUnits="userSpaceOnUse">
      <feFlood flood-opacity="0" result="BackgroundImageFix"/>
      <feBlend in="SourceGraphic" in2="BackgroundImageFix" result="shape"/>
      <feGaussianBlur result="effect1_foregroundBlur_9391_46376" stdDeviation="17.56"/>
    </filter>
    <filter id="f" width="1589.66" height="1258.97" x="696.44" y="629.801" color-interpolation-filters="sRGB" filterUnits="userSpaceOnUse">
      <feFlood flood-opacity="0" result="BackgroundImageFix"/>
      <feBlend in="SourceGraphic" in2="BackgroundImageFix" result="shape"/>
      <feGaussianBlur result="effect1_foregroundBlur_9391_46376" stdDeviation="47.413"/>
    </filter>
    <filter id="g" width="1486.96" height="1297.03" x="905.247" y="589.345" color-interpolation-filters="sRGB" filterUnits="userSpaceOnUse">
      <feFlood flood-opacity="0" result="BackgroundImageFix"/>
      <feBlend in="SourceGraphic" in2="BackgroundImageFix" result="shape"/>
      <feGaussianBlur result="effect1_foregroundBlur_9391_46376" stdDeviation="54.437"/>
    </filter>
    <filter id="l" width="781.654" height="903.847" x="1386.48" y="566.876" color-interpolation-filters="sRGB" filterUnits="userSpaceOnUse">
      <feFlood flood-opacity="0" result="BackgroundImageFix"/>
      <feBlend in="SourceGraphic" in2="BackgroundImageFix" result="shape"/>
      <feGaussianBlur result="effect1_foregroundBlur_9391_46376" stdDeviation="3.958"/>
    </filter>
    <filter id="m" width="1016.96" height="1055.57" x="1170.07" y="483.414" color-interpolation-filters="sRGB" filterUnits="userSpaceOnUse">
      <feFlood flood-opacity="0" result="BackgroundImageFix"/>
      <feBlend in="SourceGraphic" in2="BackgroundImageFix" result="shape"/>
      <feGaussianBlur result="effect1_foregroundBlur_9391_46376" stdDeviation="13.852"/>
    </filter>
    <filter id="n" width="1401.16" height="1349.8" x="746.575" y="350.715" color-interpolation-filters="sRGB" filterUnits="userSpaceOnUse">
      <feFlood flood-opacity="0" result="BackgroundImageFix"/>
      <feBlend in="SourceGraphic" in2="BackgroundImageFix" result="shape"/>
      <feGaussianBlur result="effect1_foregroundBlur_9391_46376" stdDeviation="19.788"/>
    </filter>
    <filter id="o" width="1384.88" height="1632.14" x="752.785" y="282.1" color-interpolation-filters="sRGB" filterUnits="userSpaceOnUse">
      <feFlood flood-opacity="0" result="BackgroundImageFix"/>
      <feBlend in="SourceGraphic" in2="BackgroundImageFix" result="shape"/>
      <feGaussianBlur result="effect1_foregroundBlur_9391_46376" stdDeviation="53.428"/>
    </filter>
    <filter id="p" width="1861.34" height="1890.01" x="448.742" y="327.751" color-interpolation-filters="sRGB" filterUnits="userSpaceOnUse">
      <feFlood flood-opacity="0" result="BackgroundImageFix"/>
      <feBlend in="SourceGraphic" in2="BackgroundImageFix" result="shape"/>
      <feGaussianBlur result="effect1_foregroundBlur_9391_46376" stdDeviation="132.579"/>
    </filter>
    <filter id="q" width="1419.93" height="1440.95" x="670.352" y="280.436" color-interpolation-filters="sRGB" filterUnits="userSpaceOnUse">
      <feFlood flood-opacity="0" result="BackgroundImageFix"/>
      <feBlend in="SourceGraphic" in2="BackgroundImageFix" result="shape"/>
      <feGaussianBlur result="effect1_foregroundBlur_9391_46376" stdDeviation="61.343"/>
    </filter>
    <linearGradient id="a" x1="1470.61" x2="1699.3" y1="1902.64" y2="961.388" gradientUnits="userSpaceOnUse">
      <stop stop-color="#C4C4C4"/>
      <stop offset="1" stop-color="#C4C4C4" stop-opacity="0"/>
    </linearGradient>
    <linearGradient id="h" x1="1789.73" x2="1383.27" y1="1415.62" y2="304.673" gradientUnits="userSpaceOnUse">
      <stop stop-color="#C4C4C4" stop-opacity=".7"/>
      <stop offset=".943" stop-color="#C4C4C4" stop-opacity="0"/>
    </linearGradient>
    <linearGradient id="j" x1="1928.74" x2="1077.17" y1="1056.55" y2="857.967" gradientUnits="userSpaceOnUse">
      <stop stop-color="#C4C4C4"/>
      <stop offset="1" stop-color="#C4C4C4" stop-opacity="0"/>
    </linearGradient>
  </defs>
</svg>
