<svg width="348" height="47" viewBox="0 0 348 47" fill="none" xmlns="http://www.w3.org/2000/svg">
<path d="M39.7811 28.5547C39.7811 28.5547 43.9895 22.9443 36.4149 21.4653L20.1973 26.6605L20.7898 30.6962L34.1217 26.0796C34.1217 26.0819 39.2469 24.5773 39.7811 28.5547Z" fill="url(#paint0_linear_1723_9263)"/>
<path d="M26.4706 10.3218L12.0446 15.055C9.39219 17.5815 9.04927 19.4524 9.42252 20.7214C9.58815 20.7027 9.75611 20.6981 9.92407 20.6981C9.98006 20.5371 10.1574 20.4111 10.344 20.4531C10.5959 20.5114 10.8455 20.5931 11.0951 20.6724C12.1192 18.8692 15.861 18.4796 15.861 18.4796L29.382 14.3762L26.4706 10.3218Z" fill="url(#paint1_linear_1723_9263)"/>
<path d="M62.5676 33.4072V28.8816H78.4913C80.115 28.8816 81.0434 28.0395 81.0434 26.7051C81.0434 25.2844 80.115 24.4703 78.4913 24.4703H68.9478C64.8001 24.4703 62.248 21.9765 62.248 18.4073C62.248 14.9268 64.6275 12.3164 69.0062 12.3164H81.8342C83.1756 12.3164 84.265 13.4035 84.265 14.7472V16.842H69.0085C67.7325 16.842 66.9486 17.5675 66.9486 18.8716C66.9486 20.1756 67.7605 20.9011 69.0085 20.9011H78.4937C82.9307 20.9011 85.3101 22.8747 85.3101 27.0807C85.3101 30.7059 83.0776 33.4049 78.4937 33.4049H62.5676V33.4072Z" fill="white"/>
<path d="M96.8523 33.4074V16.8445H89.1074V12.3188H109.123V16.8445H101.378V33.4074H96.8523Z" fill="white"/>
<path d="M113.443 33.4074V12.3188H132.589V16.8445H117.941V28.8817H132.619V33.4074H113.443ZM115.583 24.4727V20.9059H128.282V24.4727H115.583Z" fill="white"/>
<path d="M159.129 33.4071L156.171 28.4172H151.335C149.534 28.4172 148.415 26.46 149.325 24.9064H154.081L150.223 18.4095L141.377 33.4071H136.242L148.221 13.4803C148.744 12.6102 149.411 12.0293 150.398 12.0293C151.384 12.0293 152.052 12.6102 152.574 13.4803L164.553 33.4071H159.129Z" fill="white"/>
<path d="M168.701 33.4074V12.3188H181.116C187.179 12.3188 191.558 16.5249 191.558 22.6462C191.558 28.7674 187.177 33.4074 181.116 33.4074H168.701ZM181.116 28.8817C184.539 28.8817 187.035 26.3576 187.035 22.8771C187.035 19.3662 184.541 16.8445 181.116 16.8445H173.196V28.8817H181.116Z" fill="white"/>
<path d="M202.899 33.4074V25.7488L191.904 12.3188H197.967L205.334 21.6291L212.701 12.3188H218.445L207.422 25.7488V33.4074H202.899Z" fill="white"/>
<path d="M226.134 19.3681V33.4069H221.842V14.7259C221.842 13.0719 222.712 12.0571 224.105 12.0571C224.772 12.0571 225.294 12.2904 225.931 12.8993L239.739 26.1542V12.1154H244.062V30.9995C244.062 32.6814 243.133 33.6962 241.799 33.6962C241.104 33.6962 240.551 33.4349 239.942 32.826L226.134 19.3681Z" fill="white"/>
<path d="M270.977 33.4071L268.019 28.4172H263.183C261.382 28.4172 260.262 26.46 261.172 24.9064H265.929L262.07 18.4095L253.224 33.4071H248.09L260.069 13.4803C260.591 12.6102 261.259 12.0293 262.245 12.0293C263.232 12.0293 263.899 12.6102 264.422 13.4803L276.401 33.4071H270.977Z" fill="white"/>
<path d="M306.539 33.407L303.086 20.0937L297.459 32.0167C296.937 33.0898 296.27 33.6986 295.169 33.6986C294.096 33.6986 293.37 33.0898 292.878 32.0167L287.279 20.0937L283.857 33.407H279.42L284.582 13.8862C284.902 12.6684 285.627 12.0596 286.787 12.0596C287.715 12.0596 288.585 12.6101 289.05 13.5689L295.316 26.9708L301.582 13.5689C302.015 12.6124 302.771 12.0596 303.728 12.0596C304.829 12.0596 305.554 12.6684 305.874 13.8862L311.008 33.407H306.539Z" fill="white"/>
<path d="M315.531 33.4074V12.3188H320.057V33.4074H315.531Z" fill="white"/>
<path d="M335.603 33.4074C329.598 33.4074 325.189 28.7674 325.189 22.6462C325.189 16.4386 329.598 12.3188 335.603 12.3188H347.234V16.8445H335.603C332.209 16.8445 329.715 19.3686 329.715 22.8771C329.715 26.3576 332.181 28.8817 335.603 28.8817H347.234V33.4074H335.603Z" fill="white"/>
<path d="M47.745 22.3869C45.0997 15.932 40.0095 13.8442 32.6122 16.1816C32.3182 16.275 32.0126 16.3776 31.7047 16.4849L15.2585 22.3239C15.1932 22.3472 15.1278 22.3682 15.0625 22.3892C13.2686 22.9561 11.7266 22.4802 10.8215 21.0829L11.0174 20.9429C11.0618 20.9149 11.1084 20.8869 11.1551 20.8612L11.2111 20.8309C11.2624 20.8029 11.3137 20.7749 11.3674 20.7469L11.4047 20.7283C11.4723 20.6956 11.54 20.663 11.61 20.6326L11.666 20.6093C11.722 20.586 11.7779 20.5603 11.8386 20.537L11.9016 20.5113C11.9786 20.481 12.0579 20.453 12.1372 20.425L38.6635 11.2244L38.7101 11.2081L39.1324 6.44454L37.7607 3.09464C36.8392 0.845819 34.3011 -0.343909 31.9847 0.38859C31.931 0.40492 31.8797 0.423582 31.826 0.442245L9.53145 8.35044C5.15512 9.90408 2.3231 12.4888 1.33866 15.8317L1.31533 15.8271L1.26401 16.1093C1.15904 16.5152 1.08205 16.9281 1.0354 17.334L0.0299604 22.7112L0.0206292 22.7835C-0.0796812 24.2508 0.186258 25.7508 0.809116 27.2415C1.99418 30.0805 4.15668 32.0937 7.06102 33.0665C9.97469 34.0416 13.4342 33.8829 17.0664 32.6046L33.6293 26.7772C35.4699 26.1334 37.3221 26.278 38.2319 27.1318C38.5165 27.4094 38.9154 27.876 39.1463 28.2679C38.6098 28.7554 37.8983 29.159 37.0282 29.4693L9.43581 39.253L9.36116 39.2577V39.2857L9.3355 39.2974L10.6395 42.5003V42.484L12.1395 46.1418L12.1372 46.1744L12.4031 46.8276L13.4576 46.4311V46.4241L40.0911 36.9716C43.9776 35.5929 46.686 33.4024 47.92 30.638C49.0164 28.1932 48.9534 25.3402 47.745 22.3869ZM37.7793 6.92276L37.546 10.3147L11.7359 19.2656C11.6403 19.2983 11.5493 19.3333 11.4583 19.3682L11.3814 19.3986C11.3114 19.4266 11.2414 19.4546 11.1761 19.4849L11.1084 19.5152C11.0221 19.5525 10.9381 19.5922 10.8542 19.6342L10.8122 19.6552C10.7445 19.6902 10.6792 19.7252 10.6162 19.7602L10.5462 19.7998C10.4809 19.8371 10.4179 19.8745 10.3503 19.9165L10.2919 19.9538C9.69242 18.0805 10.5299 16.5922 12.6014 15.8574L37.7793 6.92276ZM39.1417 26.173C37.8493 24.96 35.5118 24.708 33.186 25.5268L16.6232 31.3542C9.91403 33.7126 4.18468 31.8977 2.0245 26.7282C1.48563 25.4405 1.25468 24.1528 1.334 22.9118L1.54628 21.771C1.63259 22.0253 1.72591 22.2749 1.82622 22.5222C3.61781 26.8939 7.43193 29.3083 12.1185 29.3083C13.6465 29.3083 15.2655 29.0517 16.9381 28.5222C17.1527 28.4545 17.3673 28.3822 17.5843 28.3052L34.1332 22.4312C34.2335 22.3962 34.3314 22.3636 34.4294 22.3309C37.0492 21.5028 39.0624 22.2749 39.9535 24.4514C40.3454 25.4055 40.3547 26.334 39.9815 27.1411C39.6059 26.6279 39.1907 26.2197 39.1417 26.173ZM46.672 30.0805C45.5919 32.4949 43.1588 34.4311 39.6339 35.6815L13.18 45.0687L11.1434 40.0998L37.4807 30.7523C39.3376 30.0921 40.6417 29.026 41.2482 27.6684C41.7614 26.5206 41.7521 25.2282 41.2202 23.9335C40.0421 21.0595 37.3501 19.9724 34.0165 21.0269C33.9045 21.0619 33.7902 21.1015 33.6759 21.1412L17.1271 27.0152C16.9264 27.0852 16.7235 27.1551 16.5252 27.2158C13.4599 28.1839 10.5696 28.1792 8.16677 27.2041C5.85729 26.264 4.10303 24.4654 3.09293 22.002C2.12248 19.6319 2.08749 17.3037 2.99728 15.2719C4.0937 12.8224 6.51048 10.8745 9.98868 9.63814L32.2832 1.72528C32.3416 1.70429 32.3999 1.68563 32.4605 1.66696C34.1005 1.17474 35.8454 2.02388 36.494 3.60785L37.3221 5.62806L12.1419 14.5673C10.6559 15.0946 9.5991 15.9834 9.08122 17.1404C8.589 18.2415 8.617 19.5245 9.15821 20.8496C9.69708 22.1653 10.5905 23.1217 11.7453 23.6186C12.8464 24.0922 14.1364 24.1202 15.4731 23.6979C15.5524 23.6723 15.6341 23.6466 15.7157 23.6163L32.1643 17.7796C32.4582 17.6746 32.7475 17.579 33.0251 17.4903C36.368 16.4336 39.1767 16.3426 41.3742 17.2174C43.602 18.1039 45.2723 19.9654 46.4783 22.9071C47.5421 25.5035 47.6097 27.9833 46.672 30.0805Z" fill="white"/>
<defs>
<linearGradient id="paint0_linear_1723_9263" x1="20.1975" y1="26.0814" x2="40.9477" y2="26.0814" gradientUnits="userSpaceOnUse">
<stop stop-color="white" stop-opacity="0"/>
<stop offset="1" stop-color="white"/>
</linearGradient>
<linearGradient id="paint1_linear_1723_9263" x1="27.0095" y1="10.6783" x2="9.84422" y2="21.6345" gradientUnits="userSpaceOnUse">
<stop stop-color="white" stop-opacity="0"/>
<stop offset="1" stop-color="white"/>
</linearGradient>
</defs>
</svg>
