<svg width="41" height="41" viewBox="0 0 41 41" fill="none" xmlns="http://www.w3.org/2000/svg">
<path d="M12.0975 26.4404L10.0975 24.4404L3.89754 26.4204H3.69754C3.60008 26.4265 3.50244 26.4118 3.41107 26.3773C3.31971 26.3428 3.2367 26.2894 3.16754 26.2204L1.71754 24.7904C1.60041 24.679 1.52546 24.5305 1.50541 24.3701C1.48536 24.2096 1.52144 24.0472 1.60754 23.9104L3.29754 21.0004C4.34431 19.209 5.80466 17.6942 7.55653 16.5825C9.30841 15.4708 11.3009 14.7946 13.3675 14.6104L15.8575 14.3904C17.3042 12.6704 18.6375 11.1971 19.8575 9.97042C22.1724 7.51846 24.9355 5.53267 27.9975 4.12041C31.1186 2.95379 34.4372 2.40692 37.7675 2.51042C37.969 2.51221 38.1622 2.59091 38.3075 2.73041C38.3768 2.79402 38.4321 2.87129 38.47 2.95735C38.5078 3.04341 38.5274 3.13639 38.5275 3.23041C38.5958 6.57075 38.001 9.89146 36.7775 13.0004C35.4017 16.0715 33.4381 18.8436 30.9975 21.1604C29.7675 22.4004 28.2875 23.7304 26.5775 25.1604L26.3575 27.6404C26.1781 29.706 25.5072 31.6987 24.4008 33.4522C23.2944 35.2057 21.7847 36.6692 19.9975 37.7204L17.1075 39.4104C16.9935 39.4705 16.8664 39.5014 16.7375 39.5004C16.5462 39.4965 16.3622 39.4257 16.2175 39.3004L14.7675 37.8404C14.6739 37.7509 14.6074 37.6368 14.5756 37.5113C14.5437 37.3857 14.5479 37.2537 14.5875 37.1304L16.5175 30.8604L14.5775 28.9204M26.6175 25.1604L16.5175 30.8604M15.8575 14.3904L10.1475 24.4904M33.4175 11.7004C33.4202 10.6148 32.9922 9.57236 32.2273 8.80187C31.4624 8.03138 30.4232 7.59571 29.3375 7.59042V7.59042C28.7814 7.56296 28.2255 7.64879 27.7036 7.84269C27.1816 8.03659 26.7045 8.33453 26.3012 8.71841C25.8979 9.1023 25.5768 9.56413 25.3574 10.0759C25.138 10.5876 25.0249 11.1386 25.0249 11.6954C25.0249 12.2522 25.138 12.8032 25.3574 13.315C25.5768 13.8267 25.8979 14.2885 26.3012 14.6724C26.7045 15.0563 27.1816 15.3542 27.7036 15.5481C28.2255 15.742 28.7814 15.8279 29.3375 15.8004C30.4155 15.802 31.4506 15.3779 32.2175 14.6204C32.6034 14.2397 32.9078 13.7846 33.1124 13.2826C33.317 12.7807 33.4174 12.2424 33.4075 11.7004H33.4175Z" stroke="#17B35F" stroke-width="3" stroke-linecap="round" stroke-linejoin="round"/>
<path d="M9 32.0003C13 31.2603 20.1 24.6003 20.93 20.0703C16.37 20.9403 9.71 28.0003 9 32.0003Z" stroke="#089B82" stroke-width="2" stroke-linecap="round" stroke-linejoin="round"/>
</svg>
