<svg width="28" height="26" viewBox="0 0 28 26" fill="none" xmlns="http://www.w3.org/2000/svg">
<path d="M24.4374 7.99935L21.4107 4.97268C21.5041 4.41268 21.6507 3.89268 21.8374 3.43935C21.9441 3.19935 21.9974 2.94602 21.9974 2.66602C21.9974 1.55935 21.1041 0.666016 19.9974 0.666016C17.8107 0.666016 15.8774 1.71935 14.6641 3.33268H7.9974C3.94406 3.33268 0.664062 6.61268 0.664062 10.666C0.664062 14.7193 3.9974 25.9993 3.9974 25.9993H11.3307V23.3327H13.9974V25.9993H21.3307L23.5707 18.546L27.3307 17.2927V7.99935H24.4374ZM15.3307 9.99935H8.66406V7.33268H15.3307V9.99935ZM19.3307 12.666C18.5974 12.666 17.9974 12.066 17.9974 11.3327C17.9974 10.5993 18.5974 9.99935 19.3307 9.99935C20.0641 9.99935 20.6641 10.5993 20.6641 11.3327C20.6641 12.066 20.0641 12.666 19.3307 12.666Z" fill="#007CC2"/>
</svg>
