<svg width="30" height="30" viewBox="0 0 30 30" fill="none" xmlns="http://www.w3.org/2000/svg">
<path d="M0.335938 15.0007C0.335938 9.10732 5.10927 4.33398 11.0026 4.33398C16.8959 4.33398 21.6693 9.10732 21.6693 15.0007C21.6693 20.894 16.8959 25.6673 11.0026 25.6673C5.10927 25.6673 0.335938 20.894 0.335938 15.0007Z" fill="#B22479"/>
<path d="M29.6693 5.66732L26.0026 4.00065L24.3359 0.333984L22.6693 4.00065L19.0026 5.66732L22.6693 7.33398L24.3359 11.0007L26.0026 7.33398L29.6693 5.66732Z" fill="#B22479"/>
<path d="M29.6693 24.334L26.0026 22.6673L24.3359 19.0007L22.6693 22.6673L19.0026 24.334L22.6693 26.0007L24.3359 29.6673L26.0026 26.0007L29.6693 24.334Z" fill="#B22479"/>
</svg>
