<svg width="26" height="22" viewBox="0 0 26 22" fill="none" xmlns="http://www.w3.org/2000/svg">
<g clip-path="url(#clip0_1521_9354)">
<path d="M7.6561 17.2306C5.19561 16.9713 3.5809 15.7083 2.64723 13.3629C3.40515 13.3629 4.09717 13.3629 4.78918 13.3629C4.81115 13.3178 4.82214 13.2727 4.84411 13.2388C2.33967 12.348 0.933671 10.6002 0.768906 7.8375C1.5488 8.06303 2.27376 8.266 2.99873 8.48025C3.0207 8.43515 3.05365 8.39004 3.07562 8.33366C1.98817 7.47666 1.25222 6.38286 0.95564 5.02971C0.659062 3.65401 0.845796 2.34596 1.5488 1.03791C4.48162 4.54483 8.13942 6.49563 12.5222 6.81136C12.6101 5.85288 12.5661 4.91695 12.7968 4.05995C13.8513 0.101985 18.5526 -1.30755 21.5403 1.39876C21.8479 1.66939 22.1005 1.7596 22.463 1.62428C23.2319 1.3311 24.0008 1.03791 24.7698 0.733455C24.9345 0.665798 25.0883 0.575588 25.33 0.462825C24.9125 1.74832 24.1656 2.63914 23.2429 3.45104C23.6823 3.34955 24.1327 3.27062 24.572 3.15785C25.0224 3.03381 25.4618 2.86467 26.011 2.68425C25.3629 3.69911 24.6379 4.48845 23.7812 5.15375C23.4846 5.37928 23.3857 5.61608 23.3857 5.99947C23.4406 13.0584 18.8052 20.4556 10.6329 21.7862C7.12886 22.3613 3.78961 21.8088 0.648078 20.0723C0.42839 19.9482 0.219687 19.8129 0 19.6212C2.79003 19.7114 5.3384 19.0348 7.6561 17.2306Z" fill="white"/>
</g>
<defs>
<clipPath id="clip0_1521_9354">
<rect width="26" height="22" fill="white"/>
</clipPath>
</defs>
</svg>
