<svg width="1417" height="946" viewBox="0 0 1417 946" fill="none" xmlns="http://www.w3.org/2000/svg">
<g filter="url(#filter0_f_896_6597)">
<path d="M1003.78 312.849C904.69 253.436 974.374 286.759 816.684 275.714C716.095 292.028 714.279 357.18 680.802 322.747C647.325 288.313 660.032 298.509 588.343 230.846C516.653 163.183 511.652 217.848 368.49 307.443C225.327 397.037 417.839 330.805 595.569 466.665C773.298 602.526 422.846 494.186 260.437 609.245C98.0276 724.303 307.825 693 428.144 667.085C548.463 641.17 578.508 563.51 720.549 561.803C862.59 560.097 732.938 592.649 829.743 701.881C926.548 811.113 1015.32 689.314 1126.3 607.586C1237.28 525.858 1240.8 516.224 1161.5 449.323C1082.21 382.423 1102.88 372.263 1003.78 312.849Z" fill="url(#paint0_linear_896_6597)" fill-opacity="0.8"/>
<path d="M1003.78 312.849C904.69 253.436 974.374 286.759 816.684 275.714C716.095 292.028 714.279 357.18 680.802 322.747C647.325 288.313 660.032 298.509 588.343 230.846C516.653 163.183 511.652 217.848 368.49 307.443C225.327 397.037 417.839 330.805 595.569 466.665C773.298 602.526 422.846 494.186 260.437 609.245C98.0276 724.303 307.825 693 428.144 667.085C548.463 641.17 578.508 563.51 720.549 561.803C862.59 560.097 732.938 592.649 829.743 701.881C926.548 811.113 1015.32 689.314 1126.3 607.586C1237.28 525.858 1240.8 516.224 1161.5 449.323C1082.21 382.423 1102.88 372.263 1003.78 312.849Z" stroke="black"/>
</g>
<defs>
<filter id="filter0_f_896_6597" x="0.625" y="0.0823975" width="1415.88" height="945.672" filterUnits="userSpaceOnUse" color-interpolation-filters="sRGB">
<feFlood flood-opacity="0" result="BackgroundImageFix"/>
<feBlend mode="normal" in="SourceGraphic" in2="BackgroundImageFix" result="shape"/>
<feGaussianBlur stdDeviation="100" result="effect1_foregroundBlur_896_6597"/>
</filter>
<linearGradient id="paint0_linear_896_6597" x1="696.349" y1="195.608" x2="713.379" y2="751.347" gradientUnits="userSpaceOnUse">
<stop stop-color="#575EF8" stop-opacity="0.7"/>
<stop offset="1" stop-color="#FF52BA" stop-opacity="0"/>
</linearGradient>
</defs>
</svg>
