<svg width="111" height="111" viewBox="0 0 111 111" fill="none" xmlns="http://www.w3.org/2000/svg">
<rect x="0.234375" width="110.222" height="110.222" rx="18.3704" fill="#275C59"/>
<g clip-path="url(#clip0_896_6608)">
<path fill-rule="evenodd" clip-rule="evenodd" d="M60.8926 38.1369L60.8191 18.3704H49.7969L49.8704 38.1369L55.3815 45.7055L60.8926 38.1369ZM49.8704 72.0118V91.8518H60.8926V72.0118L55.3815 64.4433L49.8704 72.0118Z" fill="white"/>
<path fill-rule="evenodd" clip-rule="evenodd" d="M60.8939 72.0119L72.504 88.0308L81.3952 81.5644L69.7852 65.5455L60.8939 62.6797V72.0119ZM49.8717 38.1369L38.1881 22.1179L29.2969 28.5843L40.9069 44.6033L49.8717 47.469V38.1369Z" fill="#00F2E6"/>
<path fill-rule="evenodd" clip-rule="evenodd" d="M40.9023 44.6032L22.0911 38.5043L18.7109 48.9386L37.5222 55.1111L46.4135 52.1718L40.9023 44.6032ZM64.2695 57.9769L69.7806 65.5455L88.5918 71.6444L91.972 61.21L73.1607 55.1111L64.2695 57.9769Z" fill="#00B9F1"/>
<path fill-rule="evenodd" clip-rule="evenodd" d="M73.1607 55.1111L91.972 48.9386L88.5918 38.5043L69.7806 44.6032L64.2695 52.1718L73.1607 55.1111ZM37.5222 55.1111L18.7109 61.21L22.0911 71.6444L40.9023 65.5455L46.4135 57.9769L37.5222 55.1111Z" fill="#D63AFF"/>
<path fill-rule="evenodd" clip-rule="evenodd" d="M40.9069 65.5455L29.2969 81.5644L38.1881 88.0308L49.8717 72.0119V62.6797L40.9069 65.5455ZM69.7852 44.6033L81.3952 28.5843L72.504 22.1179L60.8939 38.1369V47.469L69.7852 44.6033Z" fill="#FB015B"/>
</g>
<defs>
<clipPath id="clip0_896_6608">
<rect width="73.4815" height="73.4815" fill="white" transform="translate(18.6016 18.3704)"/>
</clipPath>
</defs>
</svg>
