<svg width="111" height="111" viewBox="0 0 111 111" fill="none" xmlns="http://www.w3.org/2000/svg">
<rect x="0.78125" width="110.222" height="110.222" rx="18.3704" fill="#00B9F1"/>
<rect x="19.1484" y="18.3704" width="73.4815" height="73.4815" rx="36.7407" fill="#00B9F1"/>
<path fill-rule="evenodd" clip-rule="evenodd" d="M49.508 34.8585C46.0388 35.5808 43.1393 38.4193 42.2542 41.9394C41.949 43.1602 41.949 45.1949 42.2542 46.4158C43.1494 49.9867 46.0286 52.7642 49.5894 53.4967C50.1693 53.6187 50.739 53.6493 51.8988 53.6187C53.201 53.5679 53.5469 53.5272 54.2896 53.283C56.3447 52.6217 57.8708 51.5637 59.0712 49.9562C59.8343 48.949 60.3023 48.0232 60.6685 46.8533C60.9229 46.0292 60.9432 45.8257 60.9432 44.1776C60.9432 42.5294 60.9229 42.326 60.6685 41.5019C59.702 38.3684 57.4536 36.0997 54.2896 35.0721C53.5164 34.8178 53.2519 34.7873 51.7971 34.7568C50.7085 34.7364 49.9556 34.7669 49.508 34.8585ZM68.0301 46.4563C66.5753 46.7615 65.3036 47.4737 64.215 48.6029C62.2006 50.6682 61.5902 53.8119 62.689 56.5079C63.2485 57.8915 64.51 59.3362 65.7716 60.0483L66.3922 60.4044L66.4024 66.1017V71.7989L67.9589 73.3453L69.5155 74.9019L72.1505 72.2567L74.7956 69.6116L73.2187 68.0347L71.6418 66.4577L73.1984 64.9012C74.0428 64.0466 74.7448 63.3039 74.7448 63.253C74.7448 63.2022 74.1852 62.5917 73.5036 61.9101C72.8219 61.2285 72.2827 60.6486 72.3031 60.6282C72.3183 60.6181 72.4225 60.5596 72.5787 60.472L72.5791 60.4718L72.5792 60.4717C72.7356 60.384 72.9441 60.267 73.1678 60.1399C74.8567 59.2039 76.2098 57.454 76.6778 55.6126C76.9219 54.6563 76.9524 52.8759 76.7286 51.9603C76.1284 49.3965 74.053 47.2702 71.4688 46.558C70.6855 46.3444 68.8339 46.2935 68.0301 46.4563ZM70.7058 49.834C71.2043 50.1799 71.6927 51.0446 71.6927 51.594C71.6927 52.1129 71.2654 52.9573 70.8482 53.2727C70.3803 53.6287 69.5358 53.8017 68.9966 53.6593C68.1217 53.4151 67.4299 52.5198 67.4197 51.6245C67.4095 49.9357 69.3324 48.8878 70.7058 49.834ZM36.2799 65.6742C37.7653 61.1367 41.7127 57.7794 46.4129 57.0571C47.064 56.9553 48.4883 56.9146 51.3878 56.9045C56.027 56.8943 56.8918 56.9757 58.7129 57.5861L59.832 57.9625L60.1779 58.6238C60.6968 59.6005 61.4191 60.5365 62.3347 61.4114L63.1486 62.1846V67.9836V73.7826H49.4141H35.6797V71.0459C35.6797 68.0344 35.7713 67.2409 36.2799 65.6742Z" fill="white"/>
</svg>
