<svg width="74" height="74" viewBox="0 0 74 74" fill="none" xmlns="http://www.w3.org/2000/svg">
<rect x="0.523438" y="0.370361" width="73.4815" height="73.4815" rx="36.7407" fill="#E6007A"/>
<g clip-path="url(#clip0_896_6611)">
<path d="M37.1971 21.9982C42.6865 21.9982 47.1365 19.5646 47.1365 16.5626C47.1365 13.5607 42.6865 11.1271 37.1971 11.1271C31.7078 11.1271 27.2578 13.5607 27.2578 16.5626C27.2578 19.5646 31.7078 21.9982 37.1971 21.9982Z" fill="white"/>
<path d="M37.1971 62.954C42.6865 62.954 47.1365 60.5204 47.1365 57.5184C47.1365 54.5165 42.6865 52.0829 37.1971 52.0829C31.7078 52.0829 27.2578 54.5165 27.2578 57.5184C27.2578 60.5204 31.7078 62.954 37.1971 62.954Z" fill="white"/>
<path d="M23.3401 29.5223C26.0848 25.0523 26.067 20.2111 23.3003 18.7091C20.5337 17.2071 16.0659 19.6131 13.3212 24.0831C10.5766 28.553 10.5944 33.3942 13.361 34.8962C16.1277 36.3983 20.5955 33.9923 23.3401 29.5223Z" fill="white"/>
<path d="M61.0521 49.9978C63.7968 45.5278 63.7805 40.6874 61.0157 39.1864C58.2509 37.6854 53.7846 40.0922 51.04 44.5622C48.2953 49.0322 48.3116 53.8726 51.0764 55.3735C53.8412 56.8745 58.3074 54.4677 61.0521 49.9978Z" fill="white"/>
<path d="M23.3003 55.3721C26.067 53.8701 26.0848 49.0288 23.3401 44.5589C20.5955 40.0889 16.1277 37.6829 13.361 39.1849C10.5944 40.6869 10.5766 45.5282 13.3212 49.9981C16.0659 54.4681 20.5337 56.8741 23.3003 55.3721Z" fill="white"/>
<path d="M61.0235 34.8972C63.7883 33.3962 63.8046 28.5558 61.0599 24.0859C58.3153 19.6159 53.849 17.2091 51.0842 18.7101C48.3194 20.2111 48.3031 25.0515 51.0478 29.5214C53.7925 33.9914 58.2587 36.3982 61.0235 34.8972Z" fill="white"/>
</g>
<defs>
<clipPath id="clip0_896_6611">
<rect width="51.8307" height="51.8307" fill="white" transform="translate(11.2734 11.1271)"/>
</clipPath>
</defs>
</svg>
