<svg width="170" height="170" viewBox="0 0 170 170" fill="none" xmlns="http://www.w3.org/2000/svg">
<path d="M86.4336 167.2C131.481 167.2 168 130.219 168 84.6C168 38.9813 131.481 2 86.4336 2C41.3857 2 4.86719 38.9813 4.86719 84.6C4.86719 130.219 41.3857 167.2 86.4336 167.2Z" stroke="#2A2E38" stroke-width="2.80001" stroke-miterlimit="10" stroke-linecap="round" stroke-linejoin="round" stroke-dasharray="1.4 7"/>
<path d="M154.788 84.5997C154.788 100.555 149.444 115.239 140.584 127.1C135.803 133.454 129.755 138.96 123.005 143.337C112.036 150.539 98.9571 154.774 84.894 154.774C46.2202 154.774 15 123.288 15 84.5997C15 45.7707 46.2202 14.2838 84.894 14.2838C98.9571 14.2838 112.036 18.5197 123.005 25.5795C129.755 29.9566 135.662 35.6045 140.584 41.9583C149.585 53.8189 154.788 68.6445 154.788 84.5997Z" fill="#2A2E38"/>
<path d="M30.6578 13.8728C31.9135 13.4631 32.6006 12.1089 32.1924 10.8482C31.7843 9.58746 30.4355 8.89762 29.1798 9.30738C27.9242 9.71714 27.2371 11.0713 27.6452 12.332C28.0534 13.5928 29.4021 14.2826 30.6578 13.8728Z" fill="#2A2E38"/>
<path d="M3.75157 93.6414C5.00725 93.2316 5.69431 91.8774 5.28618 90.6167C4.87805 89.356 3.52927 88.6662 2.2736 89.0759C1.01792 89.4857 0.330857 90.8399 0.738988 92.1006C1.14712 93.3613 2.4959 94.0511 3.75157 93.6414Z" fill="#2A2E38"/>
<g filter="url(#filter0_d_901_7044)">
<path d="M128.762 27.5563V141.078C128.762 144.185 126.231 146.726 123.137 146.726H43.9612C40.8673 146.726 38.3359 144.185 38.3359 141.078V27.5563C38.3359 24.45 40.8673 21.9084 43.9612 21.9084H123.277C126.371 21.9084 128.762 24.45 128.762 27.5563Z" fill="#545C71"/>
</g>
<path d="M50.2891 57.7723C49.7266 57.7723 49.1641 57.2075 49.1641 56.6428C49.1641 56.078 49.7266 55.5132 50.2891 55.5132H116.808C117.37 55.5132 117.933 56.078 117.933 56.6428C117.933 57.2075 117.37 57.7723 116.808 57.7723H50.2891Z" fill="#2F3742"/>
<path d="M50.2891 66.2441C49.7266 66.2441 49.1641 65.6793 49.1641 65.1146C49.1641 64.5498 49.7266 63.985 50.2891 63.985H116.808C117.37 63.985 117.933 64.5498 117.933 65.1146C117.933 65.6793 117.37 66.2441 116.808 66.2441H50.2891Z" fill="#2F3742"/>
<path d="M50.2891 74.7161C49.7266 74.7161 49.1641 74.1513 49.1641 73.5865C49.1641 73.0217 49.7266 72.4569 50.2891 72.4569H116.808C117.37 72.4569 117.933 73.0217 117.933 73.5865C117.933 74.1513 117.37 74.7161 116.808 74.7161H50.2891Z" fill="#2F3742"/>
<path d="M50.2891 83.329C49.7266 83.329 49.1641 82.7642 49.1641 82.1994C49.1641 81.6346 49.7266 81.0698 50.2891 81.0698H116.808C117.37 81.0698 117.933 81.6346 117.933 82.1994C117.933 82.7642 117.37 83.329 116.808 83.329H50.2891Z" fill="#2F3742"/>
<path d="M50.2891 91.8006C49.7266 91.8006 49.1641 91.2359 49.1641 90.6711C49.1641 90.1063 49.7266 89.5415 50.2891 89.5415H116.808C117.37 89.5415 117.933 90.1063 117.933 90.6711C117.933 91.2359 117.37 91.8006 116.808 91.8006H50.2891Z" fill="#2F3742"/>
<path d="M50.2891 100.273C49.7266 100.273 49.1641 99.7078 49.1641 99.143C49.1641 98.5782 49.7266 98.0134 50.2891 98.0134H79.5405C80.103 98.0134 80.6656 98.5782 80.6656 99.143C80.6656 99.7078 80.103 100.273 79.5405 100.273H50.2891Z" fill="#2F3742"/>
<path d="M99.0875 36.4517H68.0079C67.3047 36.4517 66.7422 35.8869 66.7422 35.1809C66.7422 34.4749 67.3047 33.9102 68.0079 33.9102H99.0875C99.7906 33.9102 100.353 34.4749 100.353 35.1809C100.353 35.8869 99.7906 36.4517 99.0875 36.4517Z" fill="#2F3742"/>
<path d="M91.2195 43.0879H75.8907C75.1875 43.0879 74.625 42.5231 74.625 41.8172C74.625 41.1112 75.1875 40.5464 75.8907 40.5464H91.2195C91.9227 40.5464 92.4852 41.1112 92.4852 41.8172C92.4852 42.5231 91.9227 43.0879 91.2195 43.0879Z" fill="#2F3742"/>
<path d="M111.469 126.111C111.188 124.135 111.047 122.723 109.641 122.299C107.391 121.734 106.688 124.699 104.578 126.959C103.875 127.665 102.891 128.229 102.047 128.794C101.766 128.935 101.203 129.218 101.062 128.653C100.5 126.959 101.062 127.806 103.453 125.123C104.578 123.852 105.281 122.299 105 120.464C104.86 119.334 104.156 118.346 103.031 117.922C101.906 117.498 100.781 117.64 99.9374 118.628C97.9686 121.028 98.5311 122.44 98.3905 125.97C98.3905 126.253 98.2498 126.535 97.9686 126.676C95.9997 127.806 93.8902 128.512 91.4995 128.794C91.4995 128.653 91.4995 128.653 91.4995 128.653C92.7652 126.959 95.2966 123.993 95.8591 118.91C96.1403 116.934 96.1403 115.098 95.1559 113.263C93.3277 109.874 88.4056 110.297 86.1555 114.392C83.9054 118.769 84.3273 125.547 87.4212 129.359C86.718 129.924 86.1555 130.489 85.4523 130.912C85.0304 131.195 84.8898 131.9 85.1711 132.324C85.4523 132.889 86.2961 133.03 86.8587 132.606C89.1088 130.771 88.9681 130.912 89.2494 130.771C89.6713 130.63 90.0932 130.771 90.5151 130.771C92.062 130.771 93.0464 130.63 94.1715 130.489C94.734 130.347 98.5311 128.935 98.6717 128.935C98.6717 128.935 98.6717 129.077 98.8124 129.218C99.2342 130.771 100.078 131.336 101.766 131.195C103.031 131.053 104.156 130.489 105.141 129.641C106.266 128.512 108.094 126.253 109.078 124.982C109.36 125.97 109.36 126.817 109.641 127.665C110.204 129.218 111.75 129.5 112.735 128.229C113.86 126.959 114.282 125.264 115.548 124.558C115.969 124.417 116.251 123.993 116.251 123.57C116.251 122.723 115.407 122.299 114.704 122.582C113.157 123.288 112.313 124.699 111.469 126.111ZM89.2494 128.088C88.1243 126.676 87.7024 125.123 87.4212 123.429C86.8587 120.887 87.1399 118.346 88.1243 115.945C88.6869 114.675 89.39 113.686 90.7963 113.404C92.2027 113.121 93.1871 113.404 93.4683 114.816C94.5934 119.616 92.6246 124.276 89.2494 128.088ZM101.062 120.746C101.906 119.052 102.891 120.605 102.75 121.311C102.469 122.158 102.047 122.864 101.625 123.57C101.344 123.993 101.062 124.276 100.641 124.699C100.5 123.288 100.5 122.017 101.062 120.746Z" fill="#F677F4"/>
<path d="M166.592 75.8458C164.623 78.6697 162.654 81.3525 160.967 84.3176C158.576 88.2711 157.31 87.1415 151.404 88.9771L156.748 90.2478C156.889 90.2478 156.889 90.2478 157.029 90.389C157.31 90.6714 157.451 91.095 157.17 91.3774C156.326 92.7894 155.482 93.919 154.638 95.1897C148.31 103.662 139.028 109.451 128.622 111.427C127.215 111.71 125.95 112.698 125.387 113.969C124.121 116.51 122.996 119.052 121.731 121.593C121.309 122.299 120.465 122.723 119.621 122.299C118.777 121.876 118.496 120.887 118.777 120.182C119.481 118.628 120.184 117.075 120.887 115.663C121.027 115.381 121.027 115.24 121.168 114.957C121.449 113.969 121.168 112.839 120.887 111.851C120.746 111.427 120.606 111.145 120.606 110.721C120.043 108.886 119.621 106.909 119.621 104.932C119.621 102.673 120.043 100.273 120.606 98.0137C121.449 94.3425 122.996 90.8126 125.106 87.7063C125.106 87.5651 125.246 87.5651 125.246 87.5651C125.387 87.5651 125.668 87.5651 125.668 87.8475C125.809 88.4123 125.95 88.8359 126.231 89.5419C126.512 88.2711 126.934 86.8591 127.497 85.306C127.637 84.7412 128.059 84.1764 128.481 83.6116C130.731 81.3525 133.262 79.3757 136.075 77.6813H136.216C136.356 77.6813 136.497 77.8225 136.497 77.9637C136.497 78.8109 136.497 79.7993 136.497 80.6465C137.622 78.9521 138.888 77.5402 140.294 75.987C140.716 75.5634 141.278 75.1398 141.841 74.8574C146.482 73.1631 151.685 72.3159 156.889 72.4571C159.982 72.5983 163.076 73.0219 165.889 73.7278C166.03 73.7278 166.03 73.7278 166.17 73.7278H166.311C167.436 74.4338 167.436 74.7162 166.592 75.8458Z" fill="#0E46BB"/>
<path opacity="0.5" d="M157.174 79.2341C157.174 79.3753 157.174 79.6577 156.892 79.6577C152.814 81.0697 148.876 82.9052 145.361 85.4468C141.845 87.8471 138.47 90.6711 135.516 93.7774C132.563 96.8837 129.891 100.272 127.36 103.802C126.094 105.638 124.969 107.332 123.985 109.309C123.422 110.297 122.859 111.145 122.438 112.133C122.156 112.557 121.875 113.121 121.734 113.545L121.313 114.251L121.031 114.816C121.313 113.827 121.031 112.698 120.75 111.709C120.609 111.286 120.469 111.003 120.469 110.58C120.891 109.733 121.453 108.744 122.016 107.897C123.141 106.061 124.406 104.085 125.672 102.39C128.203 98.7193 131.016 95.3305 134.251 92.2242C137.485 89.1179 140.86 86.294 144.657 84.0348C148.454 81.7757 152.533 79.9401 156.752 78.8105C156.892 78.9517 157.174 79.0929 157.174 79.2341Z" fill="white"/>
<path d="M61.8633 131.83C60.8789 132.818 59.4726 133.383 58.3475 132.536C56.6599 131.265 56.0974 130.983 54.9724 130.842C53.566 130.7 52.3004 130.559 51.8785 129.006C51.7378 128.583 51.7378 128.3 51.7378 127.877C51.5972 126.888 51.1753 125.9 50.4721 125.053C49.4877 123.923 48.7846 122.935 49.4877 121.664C50.3315 120.252 51.1753 119.687 51.1753 117.993C51.1753 117.428 51.1753 117.004 51.3159 116.581C51.5972 115.451 52.5816 114.604 53.7067 114.604C54.1286 114.604 54.5505 114.463 54.9724 114.463C56.3787 114.322 56.8006 113.333 58.6288 112.627C59.1913 112.345 59.7538 112.486 60.3164 112.769C60.7383 113.051 61.1602 113.333 61.7227 113.757C62.9884 114.745 63.8322 114.322 65.6604 114.886C66.5042 115.169 66.926 115.875 67.0667 116.581C67.0667 117.428 67.3479 118.416 67.6292 119.122C68.3324 120.534 69.7387 121.24 69.5981 122.793C69.5981 123.076 69.4574 123.499 69.3168 123.641C68.6136 124.488 68.0511 125.617 67.6292 126.747C67.4886 127.171 67.4886 127.453 67.4886 127.877C67.4886 128.724 67.2073 129.43 66.6448 129.853C64.9572 131.548 63.4103 130.277 61.8633 131.83ZM53.1442 126.747C55.3943 129.994 59.6132 130.842 62.9884 128.724C66.2229 126.747 67.0667 122.37 65.0978 119.264C65.0978 119.264 65.0978 119.122 64.9572 119.122C62.8477 115.875 58.3475 115.028 55.113 117.146C51.8785 119.122 51.0347 123.499 53.0035 126.606C53.1441 126.606 53.1442 126.747 53.1442 126.747Z" fill="#2F3742"/>
<path d="M55.8153 118.134C58.4873 116.299 62.1437 117.005 64.1126 119.829C65.9408 122.37 65.2376 125.9 62.7063 127.736L62.5656 127.877C59.8936 129.712 56.2372 128.865 54.2684 126.182C52.4401 123.641 53.1433 120.111 55.6747 118.275C55.6747 118.134 55.6747 118.134 55.8153 118.134Z" fill="#2F3742"/>
<path d="M152.969 24.0875C153.988 24.0875 154.814 23.252 154.814 22.2215C154.814 21.1909 153.988 20.3555 152.969 20.3555C151.951 20.3555 151.125 21.1909 151.125 22.2215C151.125 23.252 151.951 24.0875 152.969 24.0875Z" fill="url(#paint0_linear_901_7044)"/>
<path d="M22.7874 116.143C23.5393 115.448 23.5918 114.268 22.9046 113.507C22.2175 112.746 21.0509 112.693 20.299 113.388C19.5471 114.083 19.4945 115.264 20.1817 116.024C20.8688 116.785 22.0354 116.838 22.7874 116.143Z" fill="#FFBE2C"/>
<path d="M64.9748 13.0737C65.7268 12.3785 65.7793 11.1982 65.0921 10.4374C64.405 9.67663 63.2384 9.62349 62.4865 10.3187C61.7346 11.0139 61.682 12.1942 62.3692 12.955C63.0563 13.7158 64.2229 13.7689 64.9748 13.0737Z" fill="#F677F4"/>
<path d="M149.358 157.094C150.11 156.399 150.162 155.219 149.475 154.458C148.788 153.697 147.621 153.644 146.869 154.339C146.117 155.034 146.065 156.215 146.752 156.976C147.439 157.736 148.606 157.789 149.358 157.094Z" fill="#F677F4"/>
<path d="M73.6606 59.6224C73.2387 62.0228 72.3948 64.2823 71.4103 66.4003C71.2697 66.8239 70.9884 67.2475 70.7072 67.8122C69.8634 69.5066 68.879 70.9183 67.8945 72.4715C67.4727 73.0362 67.0509 73.6013 66.629 74.1661C63.957 77.2724 60.5816 79.955 56.9252 81.7906C56.222 82.073 55.5189 82.4961 54.8157 82.7785C53.6907 83.2021 52.4252 83.7675 51.1595 84.0498C46.378 85.4618 41.1746 85.7441 35.9712 84.6145C18.8142 81.0846 7.70411 64.1406 11.2199 46.7734C14.7357 29.5474 31.6116 18.3934 48.9093 21.9234C54.9564 23.1941 60.5816 26.1588 64.9411 30.6771C72.6759 38.1605 75.9107 49.0327 73.6606 59.6224Z" fill="url(#paint1_linear_901_7044)"/>
<path d="M42.5819 80.0962C40.7537 80.0962 38.9256 79.9551 37.0974 79.5315C22.6123 76.5664 13.1899 62.1642 16.2838 47.621C17.6901 40.5611 21.909 34.4896 27.8155 30.536C33.8627 26.5825 41.0348 25.171 48.0664 26.7242C53.2697 27.8537 57.9107 30.3949 61.5671 34.066C68.0362 40.561 70.7081 49.7393 68.8799 58.6347C68.458 60.6115 67.8954 62.5877 67.0516 64.4232C66.911 64.7056 66.7705 65.1296 66.4893 65.5532C65.7861 66.9652 64.9424 68.2357 64.0986 69.5064C63.6767 69.93 63.3954 70.4948 62.9735 70.9184C60.7234 73.6011 57.9107 75.7192 54.8168 77.4136C54.2542 77.696 53.6918 77.9785 53.1292 78.2609C52.0042 78.6845 51.0198 79.1078 50.0354 79.3902C47.504 79.8138 44.9726 80.0962 42.5819 80.0962ZM42.4411 28.5594C37.6596 28.5594 33.1594 29.9713 29.0811 32.654C23.5965 36.3251 19.7994 41.8318 18.5337 48.1856C15.7211 61.4581 24.2996 74.4483 37.519 77.2723C41.316 78.1194 45.3944 77.9785 49.1915 76.8489C50.0353 76.5665 51.0197 76.2839 52.0041 75.8603C52.5667 75.5779 53.1293 75.4367 53.5512 75.1543C56.3638 73.7423 58.8953 71.7654 61.0048 69.3651C61.286 68.9415 61.7078 68.5181 61.9891 68.0945C62.8329 66.9649 63.5359 65.8353 64.239 64.5646C64.3796 64.2822 64.5203 63.859 64.661 63.5766C65.5048 61.8822 66.0672 60.1876 66.3485 58.352C68.0361 50.1626 65.5048 41.8322 59.7389 35.9019C56.3637 32.5132 52.0041 30.2538 47.3632 29.2654C45.8163 28.7006 44.1287 28.5594 42.4411 28.5594Z" fill="#F9B400"/>
<path d="M70.6816 68.08C69.8378 69.6331 68.994 71.0451 68.0096 72.4571C67.5877 73.0219 67.1658 73.5866 66.7439 74.1514C64.0719 77.2577 60.6967 79.9405 57.0403 81.776C56.3371 82.0584 55.634 82.482 54.9308 82.7644C53.8058 83.188 52.5401 83.7528 51.2744 84.0352L31.4453 63.8441L37.7737 60.5966L38.4769 59.0434L38.6175 55.9371C38.6175 55.9371 38.3363 44.6413 38.055 44.3589C37.9144 44.2178 40.0238 37.0167 40.0238 37.0167L42.274 42.0998L45.0866 37.0167L72.3691 64.4089C72.2285 64.8325 70.8222 67.5152 70.6816 68.08Z" fill="url(#paint2_linear_901_7044)"/>
<path d="M40.1645 69.2097C39.1801 69.2097 38.055 69.2097 37.0706 69.2097C37.0706 67.5153 37.0706 65.821 37.0706 64.1266C35.1017 63.9854 33.2735 63.9854 31.3047 63.9854C31.7266 61.5851 31.7266 61.4439 31.8672 60.7379C31.8672 60.5967 32.0078 60.4555 32.1485 60.4555C32.711 60.4555 33.2735 60.4555 33.9767 60.4555C34.9611 60.4555 35.1017 60.1731 35.1017 59.4671C35.1017 55.3724 35.1017 51.1365 35.1017 47.0418C35.1017 45.7711 34.3986 45.3475 33.4142 45.3475C32.711 45.3475 32.0078 45.3475 31.3047 45.3475C31.3047 44.3591 31.3047 43.3707 31.3047 42.3824C32.4297 42.3824 34.5392 42.3824 36.6487 42.3824C37.0706 42.3824 37.0706 42.3824 37.0706 42.1C37.0706 40.9704 37.0706 38.2877 37.0706 37.1581C38.055 37.1581 39.0394 37.1581 40.1645 37.1581C40.1645 38.8524 40.1645 40.5468 40.1645 42.2412C40.8676 42.2412 41.7114 42.2412 42.4146 42.2412C42.4146 40.5468 42.4146 38.8524 42.4146 37.1581C43.399 37.1581 44.2428 37.1581 45.2272 37.1581C45.2272 37.7229 45.2272 41.8176 45.2272 42.1C45.2272 42.2412 45.2272 42.3824 45.5085 42.3824C49.0243 42.8059 51.8369 43.9355 52.1182 47.3242C52.2588 48.595 52.1182 49.7246 51.2744 50.713C50.7119 51.4189 50.1493 51.8425 49.7274 52.1249C50.5712 52.4073 52.8213 52.9721 53.6651 55.3724C53.9464 56.3608 53.9464 57.3492 53.8058 58.3376C53.6651 59.3259 53.3839 60.3143 52.6807 61.3027C51.9775 62.4323 50.9931 62.9971 49.7274 63.4206C48.3211 63.9854 46.9148 64.1266 45.3679 64.2678C45.0866 64.2678 45.0866 64.409 45.0866 64.5502C45.0866 66.1034 45.0866 67.3741 45.0866 69.3509C44.1022 69.3509 43.2584 69.3509 42.274 69.3509C42.274 67.6565 42.274 66.1034 42.274 64.409C41.5708 64.409 40.727 64.409 40.0239 64.409C40.1645 65.821 40.1645 67.5153 40.1645 69.2097ZM40.1645 54.2429C40.1645 56.3608 40.1645 58.4788 40.1645 60.5967C43.2584 60.4555 44.946 60.5967 46.6335 59.7495C47.4773 59.3259 48.0399 58.62 48.1805 57.6316C48.3211 56.502 47.7586 55.6548 46.9148 55.09C45.0866 54.1017 41.9927 54.2429 40.1645 54.2429ZM40.1645 45.6299C40.1645 47.6066 40.1645 49.4422 40.1645 51.4189C41.2895 51.5601 43.5396 51.4189 44.5241 51.1365C47.618 50.2894 47.1961 47.0418 45.2272 46.3359C43.399 45.3475 41.5708 45.6299 40.1645 45.6299Z" fill="url(#paint3_linear_901_7044)"/>
<defs>
<filter id="filter0_d_901_7044" x="7.53582" y="6.50839" width="152.03" height="186.418" filterUnits="userSpaceOnUse" color-interpolation-filters="sRGB">
<feFlood flood-opacity="0" result="BackgroundImageFix"/>
<feColorMatrix in="SourceAlpha" type="matrix" values="0 0 0 0 0 0 0 0 0 0 0 0 0 0 0 0 0 0 127 0" result="hardAlpha"/>
<feOffset dy="15.4001"/>
<feGaussianBlur stdDeviation="15.4001"/>
<feColorMatrix type="matrix" values="0 0 0 0 0 0 0 0 0 0 0 0 0 0 0 0 0 0 0.18 0"/>
<feBlend mode="normal" in2="BackgroundImageFix" result="effect1_dropShadow_901_7044"/>
<feBlend mode="normal" in="SourceGraphic" in2="effect1_dropShadow_901_7044" result="shape"/>
</filter>
<linearGradient id="paint0_linear_901_7044" x1="151.185" y1="22.1951" x2="154.763" y2="22.1951" gradientUnits="userSpaceOnUse">
<stop offset="0.00289017" stop-color="#FFD44F"/>
<stop offset="1" stop-color="#FFA607"/>
</linearGradient>
<linearGradient id="paint1_linear_901_7044" x1="10.7066" y1="53.1068" x2="74.4091" y2="53.1068" gradientUnits="userSpaceOnUse">
<stop offset="0.00289017" stop-color="#FFD44F"/>
<stop offset="1" stop-color="#FFA607"/>
</linearGradient>
<linearGradient id="paint2_linear_901_7044" x1="41.1894" y1="53.4071" x2="55.9027" y2="68.0615" gradientUnits="userSpaceOnUse">
<stop stop-color="#FAA404"/>
<stop offset="1" stop-color="#FF7904" stop-opacity="0"/>
</linearGradient>
<linearGradient id="paint3_linear_901_7044" x1="52.8479" y1="68.9813" x2="32.8329" y2="43.9451" gradientUnits="userSpaceOnUse">
<stop stop-color="#FFE491"/>
<stop offset="1" stop-color="white"/>
</linearGradient>
</defs>
</svg>
