<svg width="200" height="200" viewBox="0 0 200 200" fill="none" xmlns="http://www.w3.org/2000/svg">
<path d="M99.5785 169.02C138.006 169.02 169.157 137.868 169.157 99.44C169.157 61.012 138.006 29.86 99.5785 29.86C61.1514 29.86 30 61.012 30 99.44C30 137.868 61.1514 169.02 99.5785 169.02Z" fill="#2A2E38"/>
<path d="M149.836 54.64C152.774 54.64 155.155 52.2582 155.155 49.32C155.155 46.3818 152.774 44 149.836 44C146.897 44 144.516 46.3818 144.516 49.32C144.516 52.2582 146.897 54.64 149.836 54.64Z" fill="#2A2E38"/>
<path d="M57.1562 45.8201C59.0891 45.8201 60.6561 44.2531 60.6561 42.3201C60.6561 40.3871 59.0891 38.8201 57.1562 38.8201C55.2232 38.8201 53.6562 40.3871 53.6562 42.3201C53.6562 44.2531 55.2232 45.8201 57.1562 45.8201Z" fill="#2A2E38"/>
<path d="M41.1924 54.6399C42.5069 54.6399 43.5724 53.5743 43.5724 52.2599C43.5724 50.9454 42.5069 49.8799 41.1924 49.8799C39.878 49.8799 38.8125 50.9454 38.8125 52.2599C38.8125 53.5743 39.878 54.6399 41.1924 54.6399Z" fill="#EAEEF9"/>
<path d="M33.0837 144.1C34.3208 144.1 35.3237 143.097 35.3237 141.86C35.3237 140.623 34.3208 139.62 33.0837 139.62C31.8466 139.62 30.8438 140.623 30.8438 141.86C30.8438 143.097 31.8466 144.1 33.0837 144.1Z" fill="#EAEEF9"/>
<path d="M141.724 174.62C142.961 174.62 143.964 173.617 143.964 172.38C143.964 171.143 142.961 170.14 141.724 170.14C140.487 170.14 139.484 171.143 139.484 172.38C139.484 173.617 140.487 174.62 141.724 174.62Z" fill="#2A2E38"/>
<path d="M99.9982 184C146.389 184 183.996 146.392 183.996 100C183.996 53.6081 146.389 16 99.9982 16C53.6073 16 16 53.6081 16 100C16 146.392 53.6073 184 99.9982 184Z" stroke="#2A2E38" stroke-width="2.79997" stroke-miterlimit="10" stroke-linecap="round" stroke-linejoin="round" stroke-dasharray="1.4 7"/>
<path d="M38.0369 113.085H112.488C115.948 113.085 118.767 115.904 118.767 119.364V150.888C118.767 154.348 115.948 157.167 112.488 157.167H95.8297H91.3192H88.5H83.3997H38.0369C34.577 157.167 31.7578 154.348 31.7578 150.888V119.364C31.7578 115.904 34.577 113.085 38.0369 113.085Z" fill="#17398F"/>
<path d="M99.168 44.0138H24.7165C21.2567 44.0138 18.4375 46.833 18.4375 50.293V81.817C18.4375 85.277 21.2567 88.0962 24.7165 88.0962H41.3752H46.0653H48.5H53.8052H99.2962C102.756 88.0962 105.575 85.277 105.575 81.817V50.293C105.447 46.833 102.628 44.0138 99.168 44.0138Z" fill="#17398F"/>
<path d="M96.7305 44.0138H22.279C18.8192 44.0138 16 46.833 16 50.293V81.817C16 85.277 18.8192 88.0962 22.279 88.0962H38.9377H45H51.3677H96.7305C100.19 88.0962 103.01 85.277 103.01 81.817V50.293C103.01 46.833 100.19 44.0138 96.7305 44.0138Z" fill="url(#paint0_linear_901_6905)"/>
<path opacity="0.4" d="M92.9954 58H25.7969V63.6H92.9954V58Z" fill="white"/>
<path opacity="0.4" d="M92.9954 67.8H25.7969V73.4H92.9954V67.8Z" fill="white"/>
<path d="M115.947 119.364V150.888C115.947 154.348 113.128 157.167 109.668 157.167H93.0093H87.5H80.5794H35.2165C31.7567 157.167 28.9375 154.348 28.9375 150.888V119.364C28.9375 115.904 31.7567 113.085 35.2165 113.085H109.668C113.128 113.085 115.947 115.904 115.947 119.364Z" fill="url(#paint1_linear_901_6905)"/>
<path opacity="0.6" d="M115.957 119.364V125.387H103.271C99.8113 125.387 96.9922 122.568 96.9922 119.108V112.957H109.678C113.138 113.085 115.957 115.904 115.957 119.364Z" fill="#205667"/>
<path opacity="0.4" d="M41.203 132.2L105.602 132.2L105.602 126.6L41.203 126.6L41.203 132.2Z" fill="white"/>
<path opacity="0.4" d="M41.203 143.4L105.602 143.4L105.602 137.8L41.203 137.8L41.203 143.4Z" fill="white"/>
<path d="M103.271 74.0001H177.723C181.183 74.0001 184.002 76.8193 184.002 80.2793V111.803C184.002 115.263 181.183 118.083 177.723 118.083H161.064H157.733H155.299H148.634H103.271C99.8113 118.083 96.9922 115.263 96.9922 111.803V80.2793C96.9922 76.8193 99.8113 74.0001 103.271 74.0001Z" fill="#5A6066"/>
<path d="M100.955 74.0001H175.407C178.866 74.0001 181.686 76.8193 181.686 80.2793V111.803C181.686 115.263 178.866 118.083 175.407 118.083H158.748H153.197H146.318H100.955C97.4952 118.083 94.6761 115.263 94.6761 111.803V80.2793C94.5479 76.8193 97.3671 74.0001 100.955 74.0001Z" fill="#777B84"/>
<g clip-path="url(#clip0_901_6905)">
<path d="M100.955 74.0002H175.407C178.866 74.0002 181.686 76.8195 181.686 80.2794V111.803C181.686 115.263 178.866 118.083 175.407 118.083H158.748H153.197H146.318H100.955C97.4952 118.083 94.6761 115.263 94.6761 111.803V80.2794C94.5479 76.8195 97.3671 74.0002 100.955 74.0002Z" fill="#777B84"/>
<path d="M177.527 118.824C177.141 119.21 176.756 119.596 176.37 119.982C171.611 124.483 165.181 127.184 158.108 127.184C152.449 127.184 147.177 125.383 142.804 122.425C141.518 121.525 140.361 120.625 139.203 119.467C139.718 118.696 140.875 118.181 142.933 117.281L143.833 116.895C145.505 116.252 147.691 115.481 150.52 114.194C150.906 114.066 151.292 113.68 151.678 113.423C151.806 113.294 151.935 113.037 152.064 112.78C152.192 112.394 152.321 112.008 152.321 111.622V106.221C152.192 106.092 152.192 105.964 152.064 105.835C151.549 105.192 151.292 104.292 151.163 103.52L150.649 103.263C149.234 103.649 149.363 102.105 148.977 99.276C148.848 98.1185 148.977 97.8613 149.491 97.6041L149.877 96.9611C148.848 94.6461 148.463 92.717 148.463 91.0451C148.463 88.3444 149.62 86.5439 151.292 85.7722C150.392 83.8431 150.392 83.2001 150.392 83.2001C150.392 83.2001 156.05 84.1003 157.979 83.7145C160.423 83.2001 164.281 83.8431 165.696 87.0583C168.011 87.9585 168.911 89.5018 169.168 91.0451C169.554 93.6173 168.011 96.4466 167.753 97.4755C167.753 97.4755 167.753 97.6041 167.882 97.6041C168.268 97.7327 168.396 98.1185 168.268 99.1474C167.882 101.848 168.011 103.52 166.596 103.134L165.31 105.321C165.31 105.578 165.181 105.706 165.181 105.835C165.181 106.221 165.181 106.992 165.181 111.494C165.181 112.008 165.31 112.523 165.567 113.037C165.696 113.166 165.696 113.294 165.824 113.423C166.081 113.68 166.467 113.937 166.853 114.194C170.068 115.481 172.383 116.381 174.055 117.024C175.855 117.795 176.884 118.31 177.527 118.824Z" fill="#7A83A0"/>
<path d="M177.527 118.824C177.141 119.21 176.756 119.596 176.37 119.982C171.611 124.483 165.181 127.184 158.108 127.184C152.449 127.184 147.177 125.383 142.804 122.425C141.518 121.525 140.361 120.625 139.203 119.468C139.718 118.696 140.875 118.181 142.933 117.281L143.833 116.895C145.505 116.252 147.691 115.481 150.52 114.195C150.906 114.066 151.292 113.68 151.678 113.423C153.221 115.609 155.922 117.153 158.88 117.153C161.838 117.153 164.41 115.738 165.953 113.552C166.21 113.809 166.596 114.066 166.982 114.323C170.197 115.609 172.512 116.51 174.184 117.153C175.855 117.796 176.884 118.31 177.527 118.824Z" fill="#F677F4"/>
<path d="M167.749 97.7331C167.878 97.0901 167.492 96.1898 167.363 95.5468C167.363 95.4182 167.235 95.2896 167.235 95.2896C166.206 93.1033 163.762 92.203 161.447 92.0744C155.532 91.8172 155.017 92.8461 153.217 91.1742C153.731 92.0744 153.86 93.3605 152.96 95.0324C152.316 96.1898 151.159 96.7043 150.13 97.0901C147.43 91.0455 148.844 87.1873 151.416 85.9012C150.516 83.9721 150.516 83.3291 150.516 83.3291C150.516 83.3291 156.175 84.2294 158.104 83.8435C160.547 83.3291 164.405 83.9721 165.82 87.1873C168.135 88.0876 169.035 89.6309 169.292 91.1742C169.55 93.7463 168.006 96.5757 167.749 97.7331Z" fill="#1E1F28"/>
<path d="M152.203 111.751V106.349C152.074 106.221 152.074 106.092 151.945 105.964V105.706C152.203 106.221 152.588 106.607 153.103 106.992L157.347 109.95C158.376 110.851 159.79 110.851 160.819 109.95L164.806 106.349C164.934 106.221 165.063 106.092 165.192 105.964C165.192 106.349 165.192 107.121 165.192 111.622C165.192 111.879 165.192 112.137 165.32 112.394H152.203C152.203 112.265 152.203 112.008 152.203 111.751Z" fill="url(#paint2_linear_901_6905)"/>
</g>
<path d="M106.996 93L139.195 93L139.195 87.4L106.996 87.4L106.996 93Z" fill="#5A6066"/>
<path d="M106.996 104.2L139.195 104.2L139.195 98.6L106.996 98.6L106.996 104.2Z" fill="#5A6066"/>
<path d="M120.885 66.1793C120.231 66.1793 119.671 65.8972 119.205 65.4269L114.35 60.5358C113.883 60.0655 113.883 59.4071 114.35 58.9368L116.217 57.0557C116.684 56.5854 117.337 56.5854 117.804 57.0557L120.231 59.5012C120.698 59.9715 121.352 59.9715 121.818 59.5012L128.913 52.3527C129.38 51.8824 130.034 51.8824 130.5 52.3527L132.367 54.2339C132.834 54.7042 132.834 55.3626 132.367 55.8329L122.565 65.4269C122.098 65.8972 121.538 66.1793 120.885 66.1793Z" fill="#A95CAD"/>
<path d="M117.861 24.4705C119.036 24.4705 119.988 23.5145 119.988 22.3352C119.988 21.156 119.036 20.2 117.861 20.2C116.687 20.2 115.734 21.156 115.734 22.3352C115.734 23.5145 116.687 24.4705 117.861 24.4705Z" fill="url(#paint3_linear_901_6905)"/>
<path d="M47.5253 177.071C48.7 177.071 49.6522 176.115 49.6522 174.935C49.6522 173.756 48.7 172.8 47.5253 172.8C46.3507 172.8 45.3984 173.756 45.3984 174.935C45.3984 176.115 46.3507 177.071 47.5253 177.071Z" fill="url(#paint4_linear_901_6905)"/>
<path d="M35.8381 34.5931C36.7053 33.7975 36.7658 32.4469 35.9734 31.5763C35.181 30.7058 33.8357 30.645 32.9685 31.4405C32.1014 32.2361 32.0408 33.5867 32.8332 34.4572C33.6257 35.3278 34.971 35.3886 35.8381 34.5931Z" fill="#F677F4"/>
<path d="M164.487 37.6183C165.354 36.8228 165.414 35.4721 164.622 34.6016C163.829 33.731 162.484 33.6702 161.617 34.4658C160.75 35.2613 160.689 36.612 161.482 37.4825C162.274 38.3531 163.619 38.4139 164.487 37.6183Z" fill="#F677F4"/>
<path d="M156.237 152.193C157.104 151.397 157.164 150.047 156.372 149.176C155.579 148.306 154.234 148.245 153.367 149.04C152.5 149.836 152.439 151.187 153.232 152.057C154.024 152.928 155.369 152.989 156.237 152.193Z" fill="#F677F4"/>
<defs>
<linearGradient id="paint0_linear_901_6905" x1="59.5048" y1="44.0138" x2="59.5048" y2="88.0962" gradientUnits="userSpaceOnUse">
<stop stop-color="#D73CCE"/>
<stop offset="1" stop-color="#0646BA"/>
</linearGradient>
<linearGradient id="paint1_linear_901_6905" x1="72.4423" y1="113.085" x2="72.4423" y2="157.167" gradientUnits="userSpaceOnUse">
<stop stop-color="#D73CCE"/>
<stop offset="1" stop-color="#0646BA"/>
</linearGradient>
<linearGradient id="paint2_linear_901_6905" x1="158.653" y1="112.644" x2="158.653" y2="108.801" gradientUnits="userSpaceOnUse">
<stop stop-color="#7A83A0"/>
<stop offset="0.9913" stop-color="#58617D"/>
</linearGradient>
<linearGradient id="paint3_linear_901_6905" x1="115.803" y1="22.3051" x2="119.93" y2="22.3051" gradientUnits="userSpaceOnUse">
<stop offset="0.00289017" stop-color="#FFD44F"/>
<stop offset="1" stop-color="#FFA607"/>
</linearGradient>
<linearGradient id="paint4_linear_901_6905" x1="45.4673" y1="174.905" x2="49.5938" y2="174.905" gradientUnits="userSpaceOnUse">
<stop offset="0.00289017" stop-color="#FFD44F"/>
<stop offset="1" stop-color="#FFA607"/>
</linearGradient>
<clipPath id="clip0_901_6905">
<rect width="87.0138" height="44.0824" fill="white" transform="translate(94.6719 74.0002)"/>
</clipPath>
</defs>
</svg>
