<svg width="170" height="170" viewBox="0 0 170 170" fill="none" xmlns="http://www.w3.org/2000/svg">
<path d="M82.9937 156.353C121.538 156.353 152.784 125.257 152.784 86.8978C152.784 48.5386 121.538 17.4424 82.9937 17.4424C44.4494 17.4424 13.2031 48.5386 13.2031 86.8978C13.2031 125.257 44.4494 156.353 82.9937 156.353Z" fill="#2A2E38"/>
<path d="M82.9937 168C128.001 168 164.487 131.689 164.487 86.8978C164.487 42.1062 128.001 5.79541 82.9937 5.79541C37.986 5.79541 1.5 42.1062 1.5 86.8978C1.5 131.689 37.986 168 82.9937 168Z" stroke="#2A2E38" stroke-width="2.8" stroke-miterlimit="10" stroke-linecap="round" stroke-linejoin="round" stroke-dasharray="1.4 7"/>
<path d="M82.9937 115.589C98.9159 115.589 111.823 102.743 111.823 86.8977C111.823 71.052 98.9159 58.2065 82.9937 58.2065C67.0715 58.2065 54.1641 71.052 54.1641 86.8977C54.1641 102.743 67.0715 115.589 82.9937 115.589Z" fill="#1E1F28"/>
<path d="M101.06 17.2561C102.934 16.6499 103.959 14.6466 103.35 12.7816C102.741 10.9166 100.728 9.89611 98.8541 10.5023C96.9801 11.1085 95.9547 13.1117 96.5638 14.9767C97.1729 16.8418 99.1859 17.8622 101.06 17.2561Z" fill="#2A2E38"/>
<path d="M160.279 78.666C163.052 77.7689 164.57 74.804 163.668 72.0438C162.767 69.2836 159.788 67.7732 157.014 68.6704C154.241 69.5675 152.723 72.5324 153.624 75.2926C154.526 78.0528 157.505 79.5631 160.279 78.666Z" fill="#2A2E38"/>
<path d="M94.9453 4.71087C96.0697 4.34716 96.685 3.14519 96.3195 2.02618C95.954 0.90718 94.7463 0.294888 93.6219 0.658593C92.4974 1.0223 91.8822 2.22427 92.2477 3.34328C92.6131 4.46228 93.8209 5.07457 94.9453 4.71087Z" fill="#2A2E38"/>
<path d="M97.0554 163.976C98.0323 163.313 98.2845 161.988 97.6186 161.015C96.9527 160.043 95.6209 159.792 94.644 160.455C93.667 161.117 93.4148 162.443 94.0807 163.415C94.7466 164.387 96.0784 164.638 97.0554 163.976Z" fill="#2A2E38"/>
<path d="M8.55536 93.2131C9.53233 92.5504 9.7845 91.225 9.11861 90.2527C8.45272 89.2804 7.12092 89.0295 6.14395 89.6922C5.16699 90.3549 4.91481 91.6803 5.5807 92.6526C6.24659 93.6248 7.57839 93.8758 8.55536 93.2131Z" fill="#2A2E38"/>
<path d="M14.3161 86.7372C15.8141 85.7211 16.2008 83.6888 15.1798 82.198C14.1587 80.7071 12.1167 80.3223 10.6186 81.3385C9.12063 82.3546 8.73396 84.3869 9.75499 85.8777C10.776 87.3686 12.8181 87.7534 14.3161 86.7372Z" fill="#2A2E38"/>
<path d="M144.376 26.1064H144.234" stroke="url(#paint0_linear_901_6950)" stroke-width="2.8" stroke-linecap="round" stroke-linejoin="round"/>
<path d="M140.386 30.0836L25.7812 146.979" stroke="#38BEE9" stroke-width="2.8" stroke-linecap="round" stroke-linejoin="round" stroke-dasharray="0.7 5.6"/>
<path d="M23.9233 148.967L23.7812 149.109" stroke="url(#paint1_linear_901_6950)" stroke-width="2.8" stroke-linecap="round" stroke-linejoin="round"/>
<path d="M23.7812 26.1064H23.9233" stroke="url(#paint2_linear_901_6950)" stroke-width="2.8" stroke-linecap="round" stroke-linejoin="round"/>
<path d="M27.7734 30.0836L142.378 146.979" stroke="#38BEE9" stroke-width="2.8" stroke-linecap="round" stroke-linejoin="round" stroke-dasharray="0.7 5.6"/>
<path d="M144.234 148.967L144.376 149.109" stroke="url(#paint3_linear_901_6950)" stroke-width="2.8" stroke-linecap="round" stroke-linejoin="round"/>
<path d="M56.8843 29.6573C56.8843 36.617 54.1726 42.8666 49.6056 47.5538C49.1774 47.9799 48.892 48.406 48.4638 48.69C43.754 52.9511 37.617 55.6498 30.7664 55.6498C25.2003 55.6498 20.0623 53.9454 15.9234 50.9626C14.6389 50.1104 13.4971 49.1162 12.4981 48.1219C7.64558 43.4347 4.64844 36.9011 4.64844 29.5152C4.64844 15.1696 16.3516 3.52271 30.7664 3.52271C45.1812 3.52271 56.8843 15.1696 56.8843 29.6573Z" fill="#E9F0F8"/>
<path d="M56.8843 29.6573C56.8843 37.1852 53.6018 44.0029 48.4638 48.69C43.754 52.9511 37.617 55.6498 30.7664 55.6498C25.2003 55.6498 20.0623 53.9454 15.9234 50.9626C9.07279 46.2754 4.64844 38.4635 4.64844 29.5152C4.64844 15.1696 16.3516 3.52271 30.7664 3.52271C45.1812 3.52271 56.8843 15.1696 56.8843 29.6573Z" fill="#474E61"/>
<path d="M49.7481 47.5537C49.3199 47.9798 49.0345 48.4059 48.6063 48.69C43.8965 52.9511 37.7595 55.6498 30.9089 55.6498C25.3428 55.6498 20.2048 53.9453 16.0659 50.9626C14.7814 50.1104 13.6397 49.1161 12.6406 48.1219C13.2115 47.4117 14.2106 46.8436 16.2087 45.9913L17.065 45.7073C18.6349 45.1391 20.7757 44.2869 23.6301 43.1506C24.0583 43.0086 24.4865 42.7245 24.6292 42.2984C24.7719 42.1564 24.9146 41.8723 24.9146 41.7303C25.0574 41.4462 25.2001 41.0201 25.2001 40.594V35.3387C25.0574 35.1966 25.0574 35.1966 24.9146 35.0546C24.4865 34.3444 24.201 33.6342 24.0583 32.782L23.6301 32.4979C22.3457 32.782 22.3457 31.3617 22.0602 28.663C21.9175 27.5267 22.0602 27.2426 22.6311 27.1006L23.0593 26.5324C22.0602 24.2599 21.6321 22.4134 21.6321 20.709C21.6321 18.1523 22.7738 16.4479 24.3438 15.5957C23.4874 13.7492 23.4874 13.0391 23.4874 13.0391C23.4874 13.0391 29.0535 13.8913 30.9089 13.6072C33.3352 13.1811 37.0459 13.7492 38.3304 16.874C40.614 17.7262 41.4703 19.1466 41.7557 20.709C42.0412 23.1236 40.614 25.9643 40.4712 26.9586V27.1006C40.8994 27.2426 40.8994 27.5267 40.7567 28.521C40.4712 31.2196 40.4712 32.782 39.1867 32.3559L37.7595 34.6285C37.7595 34.9126 37.7595 34.9126 37.6168 35.0546C37.6168 35.4807 37.6168 36.1909 37.6168 40.594C37.6168 41.1621 37.7595 41.5882 38.045 42.0143C38.1877 42.1564 38.1877 42.2984 38.3304 42.2984C38.6159 42.5825 38.9013 42.8666 39.3295 43.0086C42.4693 44.2869 44.7529 45.1391 46.3228 45.8493C48.0354 46.5595 49.0345 46.9856 49.7481 47.5537Z" fill="#7A83A0"/>
<path d="M49.7481 47.5537C49.3199 47.9798 49.0345 48.4059 48.6063 48.6899C43.8965 52.951 37.7595 55.6497 30.9089 55.6497C25.3428 55.6497 20.2048 53.9453 16.0659 50.9625C14.7814 50.1103 13.6397 49.1161 12.6406 48.1218C13.2115 47.4116 14.2106 46.8435 16.2087 45.9913L17.065 45.7072C18.6349 45.1391 20.7757 44.2868 23.6301 43.1506C24.0583 43.0085 24.4865 42.7244 24.6292 42.2983C26.1991 44.4289 28.7681 45.8492 31.6225 45.8492C34.4769 45.8492 36.9032 44.4289 38.4731 42.4404C38.7586 42.7244 39.044 43.0085 39.4722 43.1506C42.612 44.4289 44.8956 45.2811 46.4655 45.9913C48.0354 46.5594 49.0345 46.9855 49.7481 47.5537Z" fill="#0E46BB"/>
<path d="M40.1909 26.9586C40.3336 26.2484 40.0482 25.5383 39.7627 24.8281C39.7627 24.6861 39.62 24.6861 39.62 24.544C38.621 22.4135 36.1947 21.5613 34.0539 21.4192C28.3451 21.1352 27.7742 22.2714 26.0615 20.567C26.6324 21.4192 26.6324 22.6976 25.7761 24.402C25.2052 25.5383 24.0634 26.1064 23.0644 26.3905C20.4954 20.567 21.7799 16.8741 24.3489 15.4537C23.4925 13.6073 23.4925 12.8971 23.4925 12.8971C23.4925 12.8971 29.0587 13.7493 30.914 13.4652C33.3403 13.0391 37.051 13.6073 38.3355 16.7321C40.6191 17.5843 41.4754 19.0046 41.7608 20.567C41.9036 23.2657 40.4763 25.9644 40.1909 26.9586Z" fill="#1E1F28"/>
<path d="M25.0589 40.594V35.3386C24.9162 35.1966 24.9162 35.1966 24.7734 35.0546V34.7705C25.0589 35.1966 25.487 35.6227 25.9152 36.0488L30.0541 38.8895C31.0532 39.7418 32.4804 39.7418 33.4794 38.8895L37.3329 35.4807C37.4756 35.3387 37.6183 35.1966 37.7611 35.0546C37.7611 35.4807 37.7611 36.1909 37.7611 40.594C37.7611 40.878 37.7611 41.1621 37.9038 41.3041H25.0589C25.0589 41.1621 25.0589 40.878 25.0589 40.594Z" fill="url(#paint4_linear_901_6950)"/>
<path d="M56.8843 29.6573C56.8843 37.1852 53.6018 44.0029 48.4638 48.69C43.754 52.9511 37.617 55.6498 30.7664 55.6498C25.2003 55.6498 20.0623 53.9454 15.9234 50.9626C9.07279 46.2754 4.64844 38.4635 4.64844 29.5152C4.64844 15.1696 16.3516 3.52271 30.7664 3.52271C45.1812 3.52271 56.8843 15.1696 56.8843 29.6573Z" stroke="#6C717B" stroke-width="2.7083" stroke-miterlimit="10" stroke-linecap="round" stroke-linejoin="round"/>
<path d="M168.548 139.534C168.548 146.494 165.837 152.744 161.27 157.431C160.841 157.857 160.556 158.283 160.128 158.567C155.418 162.828 149.281 165.527 142.43 165.527C136.864 165.527 131.726 163.823 127.587 160.84C126.303 159.988 125.161 158.993 124.162 157.999C119.31 153.312 116.312 146.778 116.312 139.392C116.312 125.047 128.016 113.4 142.43 113.4C156.845 113.4 168.548 125.047 168.548 139.534Z" fill="#E9F0F8"/>
<path d="M168.548 139.534C168.548 147.062 165.266 153.88 160.128 158.567C155.418 162.828 149.281 165.527 142.43 165.527C136.864 165.527 131.726 163.823 127.587 160.84C120.737 156.153 116.312 148.341 116.312 139.392C116.312 125.047 128.016 113.4 142.43 113.4C156.845 113.4 168.548 125.047 168.548 139.534Z" fill="#474E61"/>
<path d="M161.42 157.431C160.992 157.857 160.706 158.283 160.278 158.567C155.568 162.828 149.431 165.527 142.581 165.527C137.015 165.527 131.877 163.822 127.738 160.84C126.453 159.987 125.312 158.993 124.312 157.999C124.883 157.289 125.882 156.721 127.881 155.868L128.737 155.584C130.307 155.016 132.448 154.164 135.302 153.028C135.73 152.886 136.158 152.602 136.301 152.175C136.444 152.033 136.587 151.749 136.587 151.607C136.729 151.323 136.872 150.897 136.872 150.471V145.216C136.729 145.074 136.729 145.074 136.587 144.932C136.158 144.221 135.873 143.511 135.73 142.659L135.302 142.375C134.018 142.659 134.018 141.239 133.732 138.54C133.589 137.404 133.732 137.12 134.303 136.978L134.731 136.41C133.732 134.137 133.304 132.29 133.304 130.586C133.304 128.029 134.446 126.325 136.016 125.473C135.159 123.626 135.159 122.916 135.159 122.916C135.159 122.916 140.725 123.768 142.581 123.484C145.007 123.058 148.718 123.626 150.002 126.751C152.286 127.603 153.142 129.024 153.428 130.586C153.713 133.001 152.286 135.841 152.143 136.836V136.978C152.571 137.12 152.571 137.404 152.429 138.398C152.143 141.097 152.143 142.659 150.859 142.233L149.431 144.506C149.431 144.79 149.431 144.79 149.289 144.932C149.289 145.358 149.289 146.068 149.289 150.471C149.289 151.039 149.431 151.465 149.717 151.891C149.86 152.033 149.86 152.175 150.002 152.175C150.288 152.46 150.573 152.744 151.001 152.886C154.141 154.164 156.425 155.016 157.995 155.726C159.707 156.437 160.706 156.863 161.42 157.431Z" fill="#7A83A0"/>
<path d="M161.42 157.431C160.992 157.857 160.706 158.283 160.278 158.567C155.568 162.828 149.431 165.527 142.581 165.527C137.015 165.527 131.877 163.822 127.738 160.84C126.453 159.987 125.312 158.993 124.312 157.999C124.883 157.289 125.882 156.721 127.881 155.868L128.737 155.584C130.307 155.016 132.448 154.164 135.302 153.028C135.73 152.886 136.158 152.602 136.301 152.175C137.871 154.306 140.44 155.726 143.294 155.726C146.149 155.726 148.575 154.306 150.145 152.317C150.43 152.602 150.716 152.886 151.144 153.028C154.284 154.306 156.567 155.158 158.137 155.868C159.707 156.436 160.706 156.863 161.42 157.431Z" fill="#0E46BB"/>
<path d="M151.863 136.836C152.005 136.126 151.72 135.415 151.435 134.705C151.435 134.563 151.292 134.563 151.292 134.421C150.293 132.291 147.867 131.438 145.726 131.296C140.017 131.012 139.446 132.149 137.733 130.444C138.304 131.296 138.304 132.575 137.448 134.279C136.877 135.415 135.735 135.983 134.736 136.268C132.167 130.444 133.452 126.751 136.021 125.331C135.164 123.484 135.164 122.774 135.164 122.774C135.164 122.774 140.731 123.626 142.586 123.342C145.012 122.916 148.723 123.484 150.007 126.609C152.291 127.461 153.147 128.882 153.433 130.444C153.575 133.143 152.148 135.841 151.863 136.836Z" fill="#1E1F28"/>
<path d="M136.731 150.471V145.216C136.588 145.074 136.588 145.074 136.445 144.932V144.648C136.731 145.074 137.159 145.5 137.587 145.926L141.726 148.767C142.725 149.619 144.152 149.619 145.151 148.767L149.005 145.358C149.147 145.216 149.29 145.074 149.433 144.932C149.433 145.358 149.433 146.068 149.433 150.471C149.433 150.755 149.433 151.039 149.576 151.181H136.731C136.731 151.039 136.731 150.755 136.731 150.471Z" fill="url(#paint5_linear_901_6950)"/>
<path d="M168.548 139.534C168.548 147.062 165.266 153.88 160.128 158.567C155.418 162.828 149.281 165.527 142.43 165.527C136.864 165.527 131.726 163.823 127.587 160.84C120.737 156.153 116.312 148.341 116.312 139.392C116.312 125.047 128.016 113.4 142.43 113.4C156.845 113.4 168.548 125.047 168.548 139.534Z" stroke="#6C717B" stroke-width="2.7083" stroke-miterlimit="10" stroke-linecap="round" stroke-linejoin="round"/>
<path d="M84.0082 109.338C96.0681 109.338 105.845 99.6085 105.845 87.6066C105.845 75.6046 96.0681 65.8751 84.0082 65.8751C71.9483 65.8751 62.1719 75.6046 62.1719 87.6066C62.1719 99.6085 71.9483 109.338 84.0082 109.338Z" fill="#373D4C"/>
<path d="M103.848 87.6078C103.848 95.7039 98.8531 102.806 91.8598 105.788C89.4335 106.783 86.8645 107.351 84.0101 107.351C81.2984 107.351 78.5867 106.783 76.1604 105.788C69.0244 102.806 64.1719 95.8459 64.1719 87.6078C64.1719 79.5118 69.1671 72.41 76.1604 69.4273C78.5867 68.433 81.1557 67.8649 84.0101 67.8649C86.7218 67.8649 89.4335 68.433 91.8598 69.4273C98.9958 72.41 103.848 79.5118 103.848 87.6078Z" fill="#474E61"/>
<path d="M90.4366 108.487C90.1512 108.487 90.0085 108.487 89.723 108.203C89.2948 107.777 89.1521 107.209 89.4376 106.641C89.8657 106.072 90.4366 105.504 91.0075 104.936C94.861 101.101 97.1445 94.5676 97.1445 87.6078C97.1445 80.506 94.861 74.1144 91.0075 70.2795C90.5793 69.8534 90.1512 69.2852 89.723 68.8591C89.2948 68.433 89.4376 67.7228 89.8657 67.2967C90.2939 66.8706 91.0075 67.0126 91.4357 67.4387C91.7211 67.8649 92.1493 68.291 92.5774 68.7171C96.7163 72.9781 99.2853 80.0799 99.2853 87.6078C99.2853 95.2777 96.7163 102.237 92.5774 106.499C92.1493 106.925 91.7211 107.493 91.2929 108.061C91.1502 108.345 90.7221 108.487 90.4366 108.487Z" fill="#373D4C"/>
<path d="M77.2955 107.777C77.0101 107.777 76.7247 107.635 76.4392 107.351C76.1538 107.067 75.8683 106.641 75.5829 106.357C71.3013 102.096 68.875 94.9937 68.875 87.4658C68.875 79.7959 71.444 72.8362 75.5829 68.5751C75.8683 68.291 76.1538 68.0069 76.4392 67.5808C76.8674 67.1547 77.4383 67.0127 78.0091 67.4388C78.4373 67.8649 78.58 68.4331 78.1519 69.0012C77.8664 69.4273 77.4383 69.7114 77.1528 70.1375C73.2994 73.9724 71.0158 80.5061 71.0158 87.4658C71.0158 94.5676 73.2994 100.959 77.1528 104.794C77.4383 105.078 77.8664 105.504 78.1519 105.93C78.58 106.357 78.4373 107.067 78.0091 107.493C77.7237 107.777 77.4383 107.777 77.2955 107.777Z" fill="#373D4C"/>
<path d="M84.009 109.197C83.4381 109.197 82.8672 108.771 82.8672 108.061V67.1548C82.8672 66.5867 83.2953 66.0186 84.009 66.0186C84.7226 66.0186 85.1507 66.4447 85.1507 67.1548V108.061C85.1507 108.629 84.7226 109.197 84.009 109.197Z" fill="#373D4C"/>
<path d="M102.415 81.2162H65.7355C65.1646 81.2162 64.5938 80.7901 64.5938 80.0799C64.5938 79.3697 65.0219 78.9436 65.7355 78.9436H102.415C102.986 78.9436 103.557 79.3697 103.557 80.0799C103.557 80.7901 102.986 81.2162 102.415 81.2162Z" fill="#373D4C"/>
<path d="M102.415 96.2722H65.7355C65.1646 96.2722 64.5938 95.8461 64.5938 95.1359C64.5938 94.5678 65.0219 93.9996 65.7355 93.9996H102.415C102.986 93.9996 103.557 94.4257 103.557 95.1359C103.557 95.7041 102.986 96.2722 102.415 96.2722Z" fill="#373D4C"/>
<path d="M70.4425 92.0109C68.8725 92.0109 67.4453 90.7326 67.4453 89.0282C67.4453 87.4658 68.7298 86.0454 70.4425 86.0454C72.0124 86.0454 73.4396 87.3237 73.4396 89.0282C73.4396 90.7326 72.1551 92.0109 70.4425 92.0109Z" fill="#38BEE9"/>
<path d="M89.1435 77.9495C87.5736 77.9495 86.2891 76.6712 86.2891 75.1088C86.2891 73.5464 87.5736 72.2681 89.1435 72.2681C90.7134 72.2681 91.9979 73.5464 91.9979 75.1088C91.9979 76.5291 90.7134 77.9495 89.1435 77.9495Z" fill="#38BEE9"/>
<path d="M92.5675 100.817C90.9975 100.817 89.5703 99.539 89.5703 97.8346C89.5703 96.1301 90.8548 94.8518 92.5675 94.8518C94.1374 94.8518 95.5646 96.1301 95.5646 97.8346C95.5646 99.539 94.2801 100.817 92.5675 100.817Z" fill="#38BEE9"/>
<path d="M88.9985 107.777C88.8558 107.777 88.8558 107.777 88.713 107.635C88.4276 107.493 88.4276 107.209 88.5703 106.925C88.713 106.641 88.8558 106.499 89.1412 106.215C89.2839 105.931 89.5694 105.931 89.8548 106.073C90.1402 106.215 90.1402 106.499 89.9975 106.783C89.8548 107.067 89.7121 107.351 89.4266 107.635C89.2839 107.777 89.1412 107.777 88.9985 107.777ZM90.5684 104.936C90.4257 104.936 90.4257 104.936 90.283 104.936C89.9975 104.794 89.8548 104.51 89.9975 104.226C90.1402 103.942 90.283 103.658 90.4257 103.374C90.5684 103.09 90.8538 102.948 91.1393 103.09C91.4247 103.232 91.5675 103.516 91.4247 103.8C91.282 104.084 91.1393 104.368 90.9966 104.652C90.9966 104.936 90.8538 104.936 90.5684 104.936ZM91.8529 101.954H91.7102C91.4247 101.812 91.282 101.527 91.4247 101.243C91.5675 100.959 91.5674 100.675 91.7102 100.391C91.8529 100.107 92.1383 99.9651 92.2811 100.107C92.5665 100.249 92.7092 100.533 92.5665 100.675C92.4238 100.959 92.4238 101.243 92.2811 101.527C92.2811 101.812 91.9956 101.954 91.8529 101.954Z" fill="#38BEE9"/>
<path d="M93.1333 94.7096C92.8479 94.7096 92.5625 94.4255 92.5625 94.1415C92.5625 93.8574 92.5625 93.5733 92.5625 93.2892C92.5625 93.0052 92.8479 92.7211 93.1333 92.8631C93.4188 92.8631 93.7042 93.1472 93.5615 93.4313C93.5615 93.7153 93.5615 93.9994 93.5615 94.4255C93.5615 94.5676 93.4188 94.7096 93.1333 94.7096ZM93.1333 91.4428C92.8479 91.4428 92.5625 91.1587 92.5625 90.8746C92.5625 90.5906 92.5625 90.3065 92.5625 90.0224C92.5625 89.7383 92.7052 89.4543 92.9906 89.4543C93.2761 89.4543 93.5615 89.5963 93.5615 89.8804C93.5615 90.1645 93.5615 90.4485 93.5615 90.8746C93.7042 91.3007 93.5615 91.4428 93.1333 91.4428C93.2761 91.4428 93.1333 91.4428 93.1333 91.4428ZM92.9906 88.318C92.7052 88.318 92.5625 88.176 92.4197 87.8919C92.4197 87.6078 92.4197 87.3237 92.277 87.0397C92.277 86.7556 92.4198 86.4715 92.7052 86.4715C92.9906 86.4715 93.2761 86.6136 93.2761 86.8976C93.2761 87.1817 93.4188 87.4658 93.4188 87.8919C93.5615 88.0339 93.2761 88.176 92.9906 88.318ZM92.5625 85.0512C92.277 85.0512 92.1343 84.9091 91.9916 84.6251C91.9916 84.341 91.8489 84.0569 91.8489 83.7728C91.8489 83.4888 91.9916 83.2047 92.277 83.2047C92.5625 83.2047 92.8479 83.3467 92.8479 83.6308C92.8479 83.9149 92.9906 84.199 92.9906 84.483C92.9906 84.7671 92.8479 85.0512 92.5625 85.0512ZM91.7061 81.9264C91.4207 81.9264 91.278 81.7843 91.278 81.5003C91.1353 81.2162 91.1353 80.9321 90.9925 80.6481C90.8498 80.364 90.9925 80.0799 91.278 80.0799C91.5634 79.9379 91.8489 80.0799 91.8489 80.364C91.9916 80.6481 91.9916 80.9321 92.1343 81.2162C92.277 81.5003 92.1343 81.7843 91.7061 81.9264C91.8489 81.9264 91.8489 81.9264 91.7061 81.9264ZM90.7071 78.8016C90.5644 78.8016 90.2789 78.6596 90.2789 78.5175C90.1362 78.2335 89.9935 77.9494 89.9935 77.6653C89.8508 77.3812 89.9935 77.0972 90.2789 76.9551C90.5644 76.8131 90.8498 76.9551 90.9925 77.2392C91.1353 77.5233 91.278 77.8073 91.278 78.0914C91.4207 78.3755 91.278 78.6596 90.9925 78.8016C90.8498 78.8016 90.8498 78.8016 90.7071 78.8016Z" fill="#38BEE9"/>
<path d="M87.1442 72.1261C87.0015 72.1261 86.8588 71.984 86.7161 71.842C86.5734 71.5579 86.2879 71.4159 86.1452 71.1318C86.0025 70.8477 86.0025 70.5637 86.2879 70.4216C86.5734 70.2796 86.8588 70.2796 87.0015 70.5637C87.1442 70.8477 87.4297 71.1318 87.5724 71.2739C87.7151 71.5579 87.7151 71.842 87.4297 71.984C87.4297 72.1261 87.287 72.1261 87.1442 72.1261ZM85.1461 69.5694C85.0034 69.5694 84.8607 69.5694 84.718 69.4274C84.5753 69.1433 84.2898 69.0013 84.1471 68.7172C84.0044 68.5752 84.0044 68.1491 84.1471 68.007C84.2898 67.865 84.718 67.865 84.8607 68.007C85.1462 68.2911 85.2889 68.4331 85.5743 68.7172C85.717 68.8592 85.717 69.2854 85.5743 69.4274C85.4316 69.5694 85.2889 69.5694 85.1461 69.5694ZM82.7199 67.4389C82.5772 67.4389 82.5772 67.4389 82.4345 67.2969C82.149 67.1548 82.0063 67.0128 81.7208 66.7287C81.4354 66.5867 81.4354 66.3026 81.5781 66.0185C81.7208 65.7345 82.0063 65.7345 82.2917 65.8765C82.5772 66.0185 82.8626 66.3026 83.1481 66.4446C83.4335 66.5867 83.4335 66.8708 83.2908 67.1548C83.0053 67.4389 82.8626 67.4389 82.7199 67.4389Z" fill="#38BEE9"/>
<path d="M68.4455 87.6078C68.3028 87.6078 68.16 87.6078 68.0173 87.4658C67.7319 87.1817 67.5891 87.0397 67.3037 86.7556C67.161 86.6136 67.161 86.1875 67.3037 86.0454C67.4464 85.9034 67.8746 85.9034 68.0173 86.0454C68.16 86.3295 68.4455 86.4715 68.5882 86.7556C68.7309 86.8976 68.7309 87.3238 68.5882 87.4658C68.7309 87.6078 68.5882 87.6078 68.4455 87.6078ZM66.3047 85.1932C66.1619 85.1932 66.0192 85.0512 65.8765 85.0512C65.7338 84.7671 65.4483 84.483 65.3056 84.341C65.1629 84.0569 65.1629 83.7729 65.4483 83.6308C65.7338 83.4888 66.0192 83.4888 66.1619 83.7729C66.3047 84.0569 66.4474 84.199 66.7328 84.483C66.8755 84.7671 66.8755 85.0512 66.5901 85.1932C66.5901 85.0512 66.4474 85.1932 66.3047 85.1932ZM64.592 82.3525C64.4493 82.3525 64.1638 82.2105 64.1638 82.0684C64.0211 81.7844 63.8784 81.5003 63.7357 81.2162C63.593 80.9321 63.7357 80.6481 64.0211 80.506C64.3066 80.364 64.592 80.506 64.7347 80.7901C64.8774 81.0742 65.0202 81.3583 65.1629 81.6423C65.3056 81.9264 65.1629 82.2105 64.8775 82.3525C64.7347 82.3525 64.7347 82.3525 64.592 82.3525Z" fill="#38BEE9"/>
<path d="M89.8525 97.9764C89.4244 97.9764 89.1389 97.8343 88.8535 97.8343C88.568 97.8343 88.4253 97.5503 88.4253 97.2662C88.4253 96.9821 88.7107 96.8401 88.9962 96.8401C89.2816 96.8401 89.5671 96.9821 89.8525 96.9821C90.138 96.9821 90.2807 97.2662 90.2807 97.5503C90.2807 97.8344 90.138 97.9764 89.8525 97.9764ZM86.7127 97.4082C86.5699 97.4082 86.5699 97.4082 86.7127 97.4082C86.2845 97.2662 85.999 97.2662 85.7136 97.1242C85.4282 97.1242 85.2854 96.8401 85.2854 96.556C85.2854 96.272 85.5709 96.1299 85.8563 96.1299C86.1418 96.272 86.4272 96.272 86.7127 96.272C86.9981 96.272 87.1408 96.556 87.1408 96.8401C87.1408 97.2662 86.8554 97.4082 86.7127 97.4082ZM83.5728 96.556H83.4301C83.1446 96.414 82.8592 96.414 82.5737 96.272C82.2883 96.1299 82.1456 95.8459 82.2883 95.5618C82.431 95.2777 82.7165 95.1357 83.0019 95.2777C83.2873 95.4197 83.5728 95.4197 83.8582 95.5618C84.1437 95.7038 84.2864 95.9879 84.1437 96.272C83.8582 96.414 83.7155 96.556 83.5728 96.556ZM80.4329 95.5618H80.2902C80.0048 95.4197 79.7193 95.2777 79.4339 95.1357C79.1484 94.9936 79.0057 94.7096 79.1484 94.4255C79.2912 94.1414 79.5766 93.9994 79.862 94.1414C80.1475 94.2835 80.4329 94.4255 80.7184 94.5675C81.0038 94.7096 81.1465 94.9936 81.0038 95.2777C80.8611 95.4197 80.5756 95.5618 80.4329 95.5618ZM77.4358 94.1414C77.2931 94.1414 77.2931 94.1414 77.1503 94.1414C76.8649 93.9994 76.5795 93.8573 76.294 93.7153C76.0086 93.5733 76.0086 93.2892 76.1513 93.0051C76.294 92.7211 76.5795 92.7211 76.8649 92.8631C77.1503 93.0051 77.4358 93.1472 77.7212 93.2892C78.0067 93.4312 78.0067 93.7153 78.0067 93.9994C77.8639 93.9994 77.7212 94.1414 77.4358 94.1414ZM74.5814 92.579C74.4386 92.579 74.4386 92.579 74.2959 92.437C74.0105 92.295 73.725 92.1529 73.4396 91.8689C73.1542 91.7268 73.1541 91.4427 73.2969 91.1587C73.4396 90.8746 73.725 90.8746 74.0105 91.0166C74.2959 91.1587 74.5814 91.3007 74.7241 91.4427C75.0095 91.5848 75.0095 91.8689 74.8668 92.1529C75.0095 92.437 74.8668 92.579 74.5814 92.579Z" fill="#38BEE9"/>
<path d="M96.5631 98.1187C96.2776 98.1187 96.1349 97.9766 95.9922 97.6926C95.9922 97.4085 96.1349 97.1244 96.4204 97.1244C96.7058 97.1244 96.9912 97.1244 97.2767 96.9824C97.5621 96.9824 97.8476 97.1244 97.8476 97.4085C97.8476 97.6926 97.7048 97.9766 97.4194 97.9766C97.2767 97.9766 96.9912 98.1187 96.5631 98.1187C96.7058 98.1187 96.7058 98.1187 96.5631 98.1187ZM99.8457 97.5505C99.5602 97.5505 99.4175 97.4085 99.4175 97.1244C99.4175 96.8404 99.5602 96.5563 99.8457 96.5563C100.131 96.4142 100.417 96.4143 100.702 96.2722C100.987 96.1302 101.273 96.2722 101.273 96.5563C101.416 96.8404 101.273 97.1244 100.987 97.1244C100.559 97.4085 100.274 97.4085 99.8457 97.5505C99.9884 97.5505 99.8457 97.5505 99.8457 97.5505ZM102.843 96.4142C102.7 96.4142 102.415 96.2722 102.415 96.1302C102.272 95.8461 102.415 95.562 102.7 95.42C102.986 95.278 103.271 95.1359 103.556 94.9939C103.842 94.8519 104.127 94.9939 104.27 95.1359C104.413 95.278 104.27 95.7041 104.127 95.8461C103.842 95.9881 103.556 96.1302 103.271 96.2722C103.128 96.4143 102.986 96.4142 102.843 96.4142Z" fill="#38BEE9"/>
<path d="M91.8579 74.8248C91.5724 74.8248 91.4297 74.6827 91.4297 74.3987C91.4297 74.1146 91.5724 73.8305 91.8579 73.8305C92.1433 73.6885 92.4287 73.6885 92.8569 73.6885C93.1423 73.6885 93.4278 73.8305 93.4278 74.1146C93.4278 74.3987 93.2851 74.6827 92.9996 74.6827C92.5715 74.6827 92.286 74.8248 91.8579 74.8248ZM94.9977 74.3987C94.7123 74.3987 94.5695 74.2566 94.4268 73.9726C94.4268 73.6885 94.5696 73.4044 94.855 73.4044C95.1404 73.4044 95.4259 73.4044 95.854 73.2624C96.1395 73.2624 96.4249 73.4044 96.4249 73.6885C96.4249 73.9726 96.2822 74.2566 95.9968 74.2566C95.7113 74.2566 95.4259 74.2566 94.9977 74.3987C95.1404 74.3987 94.9977 74.3987 94.9977 74.3987ZM99.2793 74.2566C99.1366 74.2566 99.2793 74.2566 99.2793 74.2566C98.9939 74.2566 98.5657 74.2566 98.2803 74.2566C97.9949 74.2566 97.7094 73.9726 97.8521 73.6885C97.8521 73.4044 98.1376 73.1204 98.423 73.2624C98.7085 73.2624 98.9939 73.2624 99.4221 73.2624C99.7075 73.2624 99.8502 73.5465 99.8502 73.8305C99.7075 74.1146 99.4221 74.2566 99.2793 74.2566Z" fill="#38BEE9"/>
<path d="M72.0141 87.466C71.8714 87.466 71.7287 87.466 71.7287 87.324C71.4432 87.1819 71.4432 86.7558 71.5859 86.6138C71.7287 86.3297 72.0141 86.1877 72.1568 85.9036C72.2995 85.6195 72.7277 85.6195 72.8704 85.9036C73.1559 86.0456 73.1559 86.4718 72.8704 86.6138C72.7277 86.8979 72.4423 87.0399 72.2995 87.324C72.2995 87.324 72.1568 87.466 72.0141 87.466ZM74.2976 85.0514C74.1549 85.0514 74.0122 85.0514 73.8695 84.9094C73.7268 84.7673 73.7268 84.3412 73.8695 84.1992C74.1549 83.9151 74.2976 83.7731 74.5831 83.489C74.7258 83.347 75.154 83.347 75.2967 83.489C75.4394 83.631 75.4394 84.0572 75.2967 84.1992C75.0112 84.4833 74.8685 84.6253 74.5831 84.9094C74.4404 84.9094 74.4404 85.0514 74.2976 85.0514ZM76.5812 82.7788C76.4384 82.7788 76.2957 82.7788 76.153 82.6368C76.0103 82.3527 76.0103 82.0687 76.153 81.9266C76.4385 81.7846 76.5812 81.5005 76.8666 81.3585C77.1521 81.2164 77.4375 81.2164 77.5802 81.5005C77.7229 81.7846 77.7229 82.0687 77.4375 82.2107C77.1521 82.3527 77.0093 82.6368 76.7239 82.7788C76.8666 82.7788 76.7239 82.7788 76.5812 82.7788ZM79.1502 80.7903C79.0074 80.7903 78.8647 80.6483 78.722 80.6483C78.5793 80.3642 78.5793 80.0802 78.8647 79.9381C79.0074 79.7961 79.2929 79.654 79.4356 79.512L79.5783 79.37C79.8638 79.2279 80.1492 79.2279 80.2919 79.512C80.4346 79.7961 80.4346 80.0802 80.1492 80.2222L80.0065 80.3642C79.8638 80.5063 79.5783 80.6483 79.4356 80.7903C79.4356 80.7903 79.2929 80.7903 79.1502 80.7903ZM81.8619 78.9439C81.7191 78.9439 81.5764 78.8018 81.4337 78.6598C81.291 78.3757 81.4337 78.0917 81.5764 77.9496C81.8619 77.8076 82.1473 77.6655 82.4327 77.5235C82.7182 77.3815 83.0036 77.5235 83.1463 77.6655C83.2891 77.9496 83.1463 78.2337 83.0036 78.3757C82.7182 78.5178 82.4327 78.6598 82.1473 78.8018C82.1473 78.9439 82.0046 78.9439 81.8619 78.9439ZM84.7163 77.3815C84.5736 77.3815 84.2881 77.2394 84.2881 77.0974C84.1454 76.8133 84.2881 76.5293 84.5736 76.3872C84.859 76.2452 85.1444 76.1032 85.4299 75.9611C85.7153 75.8191 86.0008 75.9611 86.1435 76.2452C86.2862 76.5293 86.1435 76.8133 85.858 76.9554C85.5726 77.0974 85.2872 77.2394 85.0017 77.3815C85.0017 77.3815 84.859 77.3815 84.7163 77.3815Z" fill="#38BEE9"/>
<path d="M66.5943 100.391C66.3089 100.391 66.0234 100.107 66.0234 99.8229C66.0234 99.5388 66.0234 99.2547 66.0234 98.8286C66.0234 98.5445 66.3089 98.4025 66.5943 98.4025C66.8798 98.4025 67.0225 98.6866 67.0225 98.9707C67.0225 99.2547 67.0225 99.5388 67.0225 99.8229C67.1652 100.249 66.8798 100.391 66.5943 100.391ZM67.0225 97.1242C66.8798 97.1242 67.0225 97.1242 67.0225 97.1242C66.5943 96.9822 66.4516 96.8401 66.4516 96.556C66.4516 96.272 66.5943 95.9879 66.737 95.5618C66.8798 95.2777 67.1652 95.1357 67.3079 95.2777C67.5934 95.4198 67.7361 95.7038 67.5934 95.8459C67.4506 96.1299 67.4506 96.414 67.3079 96.6981C67.4506 96.9822 67.3079 97.1242 67.0225 97.1242ZM68.0215 94.1414H67.8788C67.5934 93.9994 67.4506 93.7153 67.5934 93.4313C67.7361 93.1472 67.8788 92.8631 68.0215 92.5791C68.1643 92.295 68.4497 92.1529 68.7351 92.295C69.0206 92.437 69.1633 92.7211 69.0206 93.0052C68.8779 93.2892 68.7351 93.5733 68.5924 93.8574C68.4497 93.9994 68.1643 94.1414 68.0215 94.1414Z" fill="#38BEE9"/>
<path d="M53.7418 142.317C53.7418 149.908 50.5254 156.726 45.3792 161.487C43.964 162.773 42.4202 163.931 40.7476 164.96C36.888 167.147 32.3851 168.434 27.6248 168.434C22.8646 168.434 18.3616 167.147 14.502 164.96C13.8587 164.574 13.3441 164.188 12.7008 163.802C6.01074 159.171 1.50781 151.323 1.50781 142.317C1.50781 127.908 13.2154 116.2 27.6248 116.2C42.0342 116.2 53.7418 127.908 53.7418 142.317Z" fill="#474E61"/>
<path d="M22.2085 148.235C22.4658 148.621 22.8518 149.007 23.2377 149.393C23.495 149.65 23.881 149.907 24.267 150.165C24.5243 150.293 24.7816 150.551 24.9102 150.679L25.0389 150.808C25.1676 150.808 25.1676 150.937 25.2962 150.937V153.252L25.1676 153.124C24.9102 152.866 24.7816 152.738 24.5243 152.609C24.1383 152.352 23.881 152.223 23.495 151.966C23.3664 151.837 23.2377 151.837 23.1091 151.709C22.0798 151.065 21.0506 150.422 21.0506 149.65C21.1792 149.264 21.5652 148.75 22.2085 148.235ZM45.1091 160.714C44.0799 158.527 42.4073 156.597 40.2202 155.44C39.0623 154.925 37.9044 154.539 36.4892 154.539C36.1032 154.539 35.7173 154.539 35.46 154.539C35.2027 154.539 35.074 154.539 34.9453 154.539C33.1442 154.41 33.0155 154.153 33.0155 154.153V150.422C34.1734 149.393 35.3313 148.364 36.1032 147.206C37.0038 146.048 37.6471 144.761 37.9044 143.217C39.3196 142.831 40.3489 141.545 40.2202 140.001C40.2202 139.358 39.7056 138.714 39.7056 138.071C39.7056 137.685 39.7056 137.428 39.7056 137.042C39.7056 136.785 39.7056 136.656 39.7056 136.399C39.7056 136.141 39.7056 135.884 39.7056 135.755C39.5769 134.597 39.3196 133.44 38.5477 132.153C36.6179 128.679 33.0155 126.364 28.8986 126.364C27.998 126.364 27.226 126.492 26.4541 126.621C25.0389 127.007 23.6237 127.65 22.4658 128.551C22.2085 128.679 21.9512 128.937 21.6939 129.065L21.5652 129.194C20.2787 130.352 19.2494 131.896 18.6061 133.697C18.0915 135.369 17.9629 137.171 18.0915 138.972V139.1V139.229C18.0915 139.615 18.2202 139.486 17.9629 139.744C17.8342 139.872 17.8342 140.001 17.7056 140.001C17.4482 140.516 17.1909 141.159 17.4482 142.059C17.9629 143.603 19.1208 143.475 20.15 144.375C20.0213 144.375 20.0213 144.504 20.0213 144.504L18.8634 144.89C13.8459 146.434 12.0447 150.808 14.2319 153.638C15.0038 154.668 16.419 155.44 18.3488 155.826C17.8342 155.826 17.3196 156.212 17.0623 156.469C14.7465 158.27 13.3313 160.972 12.9453 163.545C12.9453 163.674 12.9453 163.674 12.9453 163.802C12.9453 163.931 12.9453 163.931 12.9453 164.059C13.074 164.703 13.5886 165.217 14.2319 165.217H40.8635C42.536 164.188 44.0799 163.159 45.4951 161.744C45.2378 161.229 45.2378 160.972 45.1091 160.714Z" fill="#7A83A0"/>
<path d="M45.3737 161.486C43.9585 162.773 42.4147 163.931 40.7421 164.96C36.8825 167.147 32.3796 168.434 27.6193 168.434C22.8591 168.434 18.3561 167.147 14.4965 164.96C13.8532 164.574 13.3386 164.188 12.6953 163.802C12.6953 163.673 12.6953 163.673 12.6953 163.545C12.6953 163.416 12.6953 163.416 12.6953 163.287C13.0813 160.586 14.4965 158.013 16.8123 156.211C17.1982 155.954 17.5842 155.697 18.0988 155.568C16.169 155.182 14.8825 154.41 13.9819 153.381H20.1573C21.8298 155.825 24.6602 157.369 27.8766 157.369C30.5784 157.369 33.0228 156.211 34.6953 154.41C34.824 154.41 35.0813 154.41 35.21 154.41C35.4673 154.41 35.8532 154.41 36.2392 154.41C37.6544 154.41 38.8123 154.796 39.9702 155.311C42.1573 156.469 43.8299 158.399 44.8591 160.586C45.2451 160.972 45.2451 161.229 45.3737 161.486Z" fill="#CC3DCD"/>
<path d="M33.0268 150.293L32.8981 153.767L22.7344 154.153L23.249 151.837C23.3777 151.966 23.5063 151.966 23.635 152.095C24.0209 152.352 24.2782 152.481 24.6642 152.738C24.7929 152.867 25.0502 152.995 25.3075 153.253L25.4361 153.381V151.065C25.3075 151.065 25.3075 150.937 25.1788 150.937C27.1087 151.837 29.5531 152.352 33.0268 150.293Z" fill="url(#paint6_linear_901_6950)"/>
<path d="M39.5821 136.399C37.5236 137.042 35.4651 137.428 33.278 137.17C29.9329 136.913 26.7165 135.498 24.1434 133.311C23.3715 135.755 21.1844 137.556 18.8686 138.586C18.6113 138.714 18.2253 138.843 17.968 138.972V138.843C17.7107 137.042 17.8393 135.241 18.4826 133.568C18.9972 131.896 20.0265 130.352 21.313 129.065L21.4417 128.936C21.699 128.679 21.9563 128.551 22.085 128.422C23.2429 127.521 24.6581 126.878 26.2019 126.492C26.9739 126.363 27.8744 126.235 28.6464 126.235C32.7633 126.235 36.4943 128.551 38.2955 132.024C39.0674 133.311 39.3248 134.469 39.4534 135.627C39.5821 135.884 39.5821 136.141 39.5821 136.399Z" fill="#1E1F28"/>
<path d="M26.7152 160.2C25.8146 161.358 24.1421 161.358 22.7269 161.358C24.2707 159.943 23.3701 155.182 18.2239 155.826C11.1479 154.41 11.9198 147.077 18.8672 144.89L20.0251 144.504C20.1538 144.504 20.1538 144.633 20.2824 144.633C20.797 146.048 21.569 147.334 22.3409 148.235C19.5105 150.679 23.4988 151.323 25.3 153.124C26.9725 154.024 28.3877 158.141 26.7152 160.2Z" fill="#1E1F28"/>
<path d="M53.7418 142.317C53.7418 149.908 50.5254 156.726 45.3792 161.487C43.964 162.773 42.4202 163.931 40.7476 164.96C36.888 167.147 32.3851 168.434 27.6248 168.434C22.8646 168.434 18.3616 167.147 14.502 164.96C13.8587 164.574 13.3441 164.188 12.7008 163.802C6.01074 159.171 1.50781 151.323 1.50781 142.317C1.50781 127.908 13.2154 116.2 27.6248 116.2C42.0342 116.2 53.7418 127.908 53.7418 142.317Z" stroke="#6C717B" stroke-width="2.702" stroke-miterlimit="10" stroke-linecap="round" stroke-linejoin="round"/>
<path d="M168.547 30.3169C168.547 37.9076 165.33 44.7263 160.184 49.4866C158.769 50.7731 157.225 51.931 155.552 52.9603C151.693 55.1474 147.19 56.434 142.43 56.434C137.669 56.434 133.166 55.1474 129.307 52.9603C128.663 52.5743 128.149 52.1883 127.506 51.8024C120.815 47.1708 116.312 39.3228 116.312 30.3169C116.312 15.9076 128.02 4.19995 142.43 4.19995C156.839 4.19995 168.547 15.9076 168.547 30.3169Z" fill="#474E61"/>
<path d="M136.998 36.2349C137.255 36.6209 137.641 37.0068 138.027 37.3928C138.284 37.6501 138.67 37.9074 139.056 38.1647C139.313 38.2934 139.571 38.5507 139.699 38.6794L139.828 38.808C139.957 38.808 139.957 38.9367 140.085 38.9367V41.2525L139.957 41.1238C139.699 40.8665 139.571 40.7378 139.313 40.6092C138.927 40.3519 138.67 40.2232 138.284 39.9659C138.155 39.8373 138.027 39.8373 137.898 39.7086C136.869 39.0653 135.84 38.422 135.84 37.6501C135.968 37.2642 136.354 36.7495 136.998 36.2349ZM159.898 48.7145C158.869 46.5273 157.196 44.5975 155.009 43.4396C153.851 42.925 152.693 42.539 151.278 42.539C150.892 42.539 150.506 42.539 150.249 42.539C149.992 42.539 149.863 42.539 149.734 42.539C147.933 42.4104 147.805 42.153 147.805 42.153V38.422C148.962 37.3928 150.12 36.3636 150.892 35.2057C151.793 34.0478 152.436 32.7612 152.693 31.2174C154.109 30.8314 155.138 29.5448 155.009 28.001C155.009 27.3577 154.495 26.7144 154.495 26.0711C154.495 25.6852 154.495 25.4279 154.495 25.0419C154.495 24.7846 154.495 24.6559 154.495 24.3986C154.495 24.1413 154.495 23.884 154.495 23.7554C154.366 22.5975 154.109 21.4396 153.337 20.153C151.407 16.6793 147.805 14.3635 143.688 14.3635C142.787 14.3635 142.015 14.4922 141.243 14.6208C139.828 15.0068 138.413 15.6501 137.255 16.5507C136.998 16.6793 136.74 16.9366 136.483 17.0653L136.354 17.1939C135.068 18.3518 134.038 19.8957 133.395 21.6969C132.881 23.3694 132.752 25.1706 132.881 26.9717V27.1004V27.229C132.881 27.615 133.009 27.4864 132.752 27.7437C132.623 27.8723 132.623 28.001 132.495 28.001C132.237 28.5156 131.98 29.1589 132.237 30.0595C132.752 31.6033 133.91 31.4747 134.939 32.3753C134.81 32.3753 134.81 32.5039 134.81 32.5039L133.653 32.8899C128.635 34.4337 126.834 38.808 129.021 41.6384C129.793 42.6677 131.208 43.4396 133.138 43.8256C132.623 43.8256 132.109 44.2115 131.851 44.4688C129.536 46.27 128.12 48.9718 127.734 51.5449C127.734 51.6735 127.734 51.6735 127.734 51.8022C127.734 51.9308 127.734 51.9308 127.734 52.0595C127.863 52.7028 128.378 53.2174 129.021 53.2174H155.653C157.325 52.1882 158.869 51.1589 160.284 49.7437C160.027 49.2291 160.027 48.9718 159.898 48.7145Z" fill="#7A83A0"/>
<path d="M160.163 49.4863C158.748 50.7728 157.204 51.9307 155.531 52.9599C151.672 55.1471 147.169 56.4336 142.408 56.4336C137.648 56.4336 133.145 55.1471 129.286 52.9599C128.642 52.574 128.128 52.188 127.484 51.802C127.484 51.6734 127.484 51.6734 127.484 51.5447C127.484 51.4161 127.484 51.4161 127.484 51.2874C127.87 48.5857 129.286 46.0126 131.601 44.2114C131.987 43.9541 132.373 43.6968 132.888 43.5681C130.958 43.1822 129.672 42.4102 128.771 41.381H134.946C136.619 43.8254 139.449 45.3693 142.666 45.3693C145.367 45.3693 147.812 44.2114 149.484 42.4102C149.613 42.4102 149.87 42.4102 149.999 42.4102C150.256 42.4102 150.642 42.4102 151.028 42.4102C152.443 42.4102 153.601 42.7962 154.759 43.3108C156.946 44.4687 158.619 46.3985 159.648 48.5857C160.034 48.9716 160.034 49.229 160.163 49.4863Z" fill="#CC3DCD"/>
<path d="M147.816 38.2935L147.687 41.7671L137.523 42.1531L138.038 39.8373C138.167 39.966 138.295 39.966 138.424 40.0946C138.81 40.3519 139.067 40.4806 139.453 40.7379C139.582 40.8666 139.839 40.9952 140.097 41.2525L140.225 41.3812V39.0654C140.097 39.0654 140.097 38.9367 139.968 38.9367C141.898 39.8373 144.342 40.3519 147.816 38.2935Z" fill="url(#paint7_linear_901_6950)"/>
<path d="M154.379 24.3986C152.32 25.0419 150.262 25.4279 148.075 25.1706C144.73 24.9132 141.513 23.498 138.94 21.3109C138.168 23.7553 135.981 25.5565 133.665 26.5858C133.408 26.7144 133.022 26.8431 132.765 26.9717V26.8431C132.508 25.0419 132.636 23.2407 133.279 21.5682C133.794 19.8957 134.823 18.3518 136.11 17.0653L136.239 16.9366C136.496 16.6793 136.753 16.5507 136.882 16.422C138.04 15.5214 139.455 14.8781 140.999 14.4922C141.771 14.3635 142.671 14.2349 143.443 14.2349C147.56 14.2349 151.291 16.5507 153.092 20.0243C153.864 21.3109 154.122 22.4688 154.25 23.6267C154.379 23.884 154.379 24.1413 154.379 24.3986Z" fill="#1E1F28"/>
<path d="M141.504 48.2C140.604 49.3579 138.931 49.3579 137.516 49.3579C139.06 47.9427 138.159 43.1824 133.013 43.8257C125.937 42.4105 126.709 35.0771 133.656 32.89L134.814 32.504C134.943 32.504 134.943 32.6327 135.071 32.6327C135.586 34.0479 136.358 35.3344 137.13 36.235C134.3 38.6795 138.288 39.3228 140.089 41.1239C141.762 42.0245 143.177 46.1415 141.504 48.2Z" fill="#1E1F28"/>
<path d="M168.547 30.3169C168.547 37.9076 165.33 44.7263 160.184 49.4866C158.769 50.7731 157.225 51.931 155.552 52.9603C151.693 55.1474 147.19 56.434 142.43 56.434C137.669 56.434 133.166 55.1474 129.307 52.9603C128.663 52.5743 128.149 52.1883 127.506 51.8024C120.815 47.1708 116.312 39.3228 116.312 30.3169C116.312 15.9076 128.02 4.19995 142.43 4.19995C156.839 4.19995 168.547 15.9076 168.547 30.3169Z" stroke="#6C717B" stroke-width="2.702" stroke-miterlimit="10" stroke-linecap="round" stroke-linejoin="round"/>
<defs>
<linearGradient id="paint0_linear_901_6950" x1="-nan" y1="-nan" x2="-nan" y2="-nan" gradientUnits="userSpaceOnUse">
<stop stop-color="#51DFD4"/>
<stop offset="1" stop-color="#1BE068"/>
</linearGradient>
<linearGradient id="paint1_linear_901_6950" x1="22.3865" y1="149.058" x2="145.173" y2="149.058" gradientUnits="userSpaceOnUse">
<stop stop-color="#51DFD4"/>
<stop offset="1" stop-color="#1BE068"/>
</linearGradient>
<linearGradient id="paint2_linear_901_6950" x1="-nan" y1="-nan" x2="-nan" y2="-nan" gradientUnits="userSpaceOnUse">
<stop stop-color="#51DFD4"/>
<stop offset="1" stop-color="#1BE068"/>
</linearGradient>
<linearGradient id="paint3_linear_901_6950" x1="145.748" y1="149.058" x2="22.9633" y2="149.058" gradientUnits="userSpaceOnUse">
<stop stop-color="#51DFD4"/>
<stop offset="1" stop-color="#1BE068"/>
</linearGradient>
<linearGradient id="paint4_linear_901_6950" x1="31.3587" y1="41.5481" x2="31.3587" y2="37.7937" gradientUnits="userSpaceOnUse">
<stop stop-color="#7A83A0"/>
<stop offset="0.9913" stop-color="#58617D"/>
</linearGradient>
<linearGradient id="paint5_linear_901_6950" x1="143.031" y1="151.425" x2="143.031" y2="147.671" gradientUnits="userSpaceOnUse">
<stop stop-color="#7A83A0"/>
<stop offset="0.9913" stop-color="#58617D"/>
</linearGradient>
<linearGradient id="paint6_linear_901_6950" x1="27.8963" y1="154.297" x2="27.8963" y2="152.079" gradientUnits="userSpaceOnUse">
<stop stop-color="#7A83A0"/>
<stop offset="0.9913" stop-color="#58617D"/>
</linearGradient>
<linearGradient id="paint7_linear_901_6950" x1="142.685" y1="42.2972" x2="142.685" y2="40.0794" gradientUnits="userSpaceOnUse">
<stop stop-color="#7A83A0"/>
<stop offset="0.9913" stop-color="#58617D"/>
</linearGradient>
</defs>
</svg>
