<svg width="171" height="170" viewBox="0 0 171 170" fill="none" xmlns="http://www.w3.org/2000/svg">
<path d="M85.7779 168C131.771 168 169.056 130.84 169.056 85C169.056 39.1604 131.771 2 85.7779 2C39.7848 2 2.5 39.1604 2.5 85C2.5 130.84 39.7848 168 85.7779 168Z" stroke="#2A2E38" stroke-width="3.22331" stroke-miterlimit="10" stroke-linecap="round" stroke-linejoin="round" stroke-dasharray="1.61 8.06"/>
<path d="M81.9555 95.7647C80.9023 95.7647 79.9995 95.31 79.2473 94.552L71.4236 86.6694C70.6713 85.9114 70.6713 84.8503 71.4236 84.0923L74.4327 81.0605C75.185 80.3026 76.2382 80.3026 76.9904 81.0605L80.9023 85.0019C81.6546 85.7598 82.7077 85.7598 83.46 85.0019L94.8946 73.4811C95.6469 72.7231 96.7001 72.7231 97.4524 73.4811L100.461 76.5129C101.214 77.2708 101.214 78.3319 100.461 79.0899L84.6637 94.552C83.9114 95.31 83.0087 95.7647 81.9555 95.7647Z" fill="#1E1F28"/>
<path d="M85.6423 141.457C85.4129 141.457 84.954 141.457 84.7246 141.227C75.3185 135.723 52.6062 120.127 44.3472 94.6683C37.9235 73.5677 35.1705 56.8248 34.0234 46.2745C34.0234 45.8158 34.2529 45.5864 34.2529 45.3571C34.4823 45.1277 34.7117 44.8983 35.3999 44.669C39.9883 44.4396 48.2473 40.9993 48.4767 40.9993C52.6062 38.9351 57.424 36.1829 62.2417 32.9719C69.8125 28.1555 80.3657 21.7335 85.4129 21.7335C90.2306 21.7335 100.325 28.1555 107.666 32.7425C112.943 35.9535 117.761 39.1645 122.12 40.9993L122.578 41.2287C129.232 43.7516 133.132 44.669 135.655 44.669C135.885 44.669 136.343 44.8984 136.573 45.1277C136.802 45.3571 137.032 45.5864 136.802 46.2745C135.655 56.8248 132.902 73.797 126.479 94.8977C118.678 120.356 95.966 135.723 86.5599 141.227C86.3305 141.457 85.8717 141.457 85.6423 141.457Z" fill="url(#paint0_linear_901_7094)"/>
<path opacity="0.2" d="M80.8383 50.1741C80.8383 51.3208 79.9207 52.4676 78.5442 52.4676C77.3971 52.4676 76.25 51.5502 76.25 50.1741C76.25 49.2566 76.9383 48.3392 77.6265 48.1099V28.8441L89.3268 17.147C90.015 17.3763 90.4739 17.6057 91.1621 17.835L79.4618 29.5321V48.1099C80.3795 48.3392 80.8383 49.2566 80.8383 50.1741Z" fill="#0E46BB"/>
<path opacity="0.2" d="M73.741 102.925C73.741 104.072 72.8233 105.219 71.4468 105.219C70.988 105.219 70.7586 105.219 70.2997 104.99L70.5291 105.219L59.7465 116.228V129.531C59.0583 129.072 58.5995 128.384 58.1406 127.925V115.54L69.6115 104.072C69.3821 103.843 69.3821 103.384 69.3821 103.155C69.3821 102.008 70.2997 100.861 71.6762 100.861C72.8233 100.632 73.741 101.549 73.741 102.925Z" fill="#0E46BB"/>
<path opacity="0.2" d="M82.2166 110.265C82.2166 111.411 81.299 112.558 79.9225 112.558C79.6931 112.558 79.6931 112.558 79.4636 112.558V112.788L71.434 120.815V139.163C70.9752 138.705 70.287 138.246 69.8281 137.787V119.898L78.3166 111.411V111.182C78.0871 110.723 77.8577 110.494 77.8577 110.035C77.8577 108.888 78.7754 107.742 80.1519 107.742C81.0696 107.971 82.2166 109.118 82.2166 110.265Z" fill="#0E46BB"/>
<path opacity="0.2" d="M67.0777 124.255C67.0777 125.173 66.3894 126.09 65.7012 126.319V134.806C65.2423 134.347 64.5541 133.888 64.0952 133.429V126.319C63.1776 126.09 62.7188 125.173 62.7188 124.255C62.7188 123.108 63.6364 121.962 65.0129 121.962C66.3894 121.962 67.0777 122.879 67.0777 124.255Z" fill="#0E46BB"/>
<path opacity="0.2" d="M98.7431 140.081C97.596 140.999 96.4489 141.687 95.5312 142.375C95.5312 142.146 95.5312 142.146 95.5312 141.916C95.5312 140.769 96.4489 139.622 97.8254 139.622C98.0548 139.852 98.5137 139.852 98.7431 140.081Z" fill="#0E46BB"/>
<path opacity="0.2" d="M29 43.2931C29.4588 42.3756 29.9177 41.6876 30.6059 40.9995V63.2469C29.9177 59.3479 29.4588 55.6782 29 52.6966V43.2931Z" fill="#0E46BB"/>
<path opacity="0.2" d="M41.3902 93.9812C41.3902 95.1283 40.4725 96.2753 39.096 96.2753C38.8666 96.2753 38.8666 96.2753 38.6372 96.2753C38.1783 94.44 37.4901 92.6047 37.0312 90.9988L38.1783 92.1459C38.4078 91.9164 38.8666 91.9164 39.096 91.9164C40.4725 91.687 41.3902 92.6047 41.3902 93.9812Z" fill="#0E46BB"/>
<path opacity="0.2" d="M44.1352 77.2376C44.1352 78.3843 43.2175 79.5311 41.841 79.5311C40.694 79.5311 39.5469 78.6137 39.5469 77.2376C39.5469 76.3202 40.2351 75.4027 41.1528 75.1734C41.1528 74.256 41.1528 73.1092 41.1528 72.1918C41.3822 68.5221 41.3822 64.6231 41.3822 60.9534V38.0179C42.0705 37.7886 42.5293 37.5592 42.9881 37.5592V61.1827C42.9881 65.0818 42.7587 68.7514 42.7587 72.6505C42.7587 73.5679 42.7587 74.7147 42.5293 75.6321C43.447 75.6321 44.1352 76.3202 44.1352 77.2376Z" fill="#0E46BB"/>
<path opacity="0.2" d="M58.3708 29.0731V99.0263L57.4531 98.797C56.7649 98.5676 55.8472 99.0263 55.3884 99.7144V99.9437L47.1294 108.201V113.705C46.4411 112.788 45.9823 111.87 45.5234 110.953V107.512L54.2413 98.797C54.9295 97.8795 55.8472 97.1915 56.9943 97.1915V29.9905C57.4531 29.7612 57.912 29.3025 58.3708 29.0731Z" fill="#0E46BB"/>
<path opacity="0.2" d="M107.229 100.632C107.229 101.091 107.459 101.32 107.459 101.779L103.329 105.907C103.1 105.678 102.641 105.678 102.411 105.678C101.264 105.678 100.117 106.595 100.117 107.971C100.117 109.348 101.035 110.265 102.411 110.265C103.788 110.265 104.706 109.348 104.706 107.971C104.706 107.742 104.706 107.283 104.476 107.054L108.835 102.696C109.064 102.696 109.294 102.696 109.523 102.696C110.67 102.696 111.817 101.779 111.817 100.403C111.817 99.2559 110.9 98.1091 109.523 98.1091C108.376 98.3385 107.229 99.4853 107.229 100.632Z" fill="#0E46BB"/>
<path opacity="0.2" d="M130.403 100.174C130.174 100.862 129.944 101.321 129.715 101.779H118.703C118.473 102.697 117.556 103.156 116.638 103.156C115.491 103.156 114.344 102.238 114.344 100.862C114.344 99.7147 115.261 98.5676 116.638 98.5676C117.556 98.5676 118.473 99.2559 118.703 99.9441H130.403V100.174Z" fill="#0E46BB"/>
<path opacity="0.2" d="M133.855 90.0813C133.626 90.54 133.626 91.2281 133.396 91.6868H118.026L117.567 91.4574C117.108 90.9987 115.273 89.1639 113.667 87.5584C111.602 85.4942 110.455 84.3474 109.767 83.6594C109.537 83.6594 109.078 83.8887 108.849 83.8887C107.702 83.8887 106.555 82.9713 106.555 81.5952C106.555 80.4484 107.472 79.3016 108.849 79.3016C109.996 79.3016 111.143 80.2191 111.143 81.5952C111.143 81.8245 111.143 82.2832 110.914 82.5126C111.372 82.9713 113.208 84.8061 114.814 86.4116C116.649 88.2465 118.026 89.6226 118.484 90.3107H133.855V90.0813Z" fill="#0E46BB"/>
<path opacity="0.2" d="M105.164 66.9165C105.164 68.0632 106.082 69.21 107.458 69.21C107.688 69.21 108.146 69.21 108.376 68.9807L115.947 76.5494L117.782 78.1549C117.553 78.6136 117.323 78.8429 117.323 79.3016C117.323 80.4484 118.241 81.5952 119.617 81.5952C120.994 81.5952 121.912 80.6778 121.912 79.3016C121.912 77.9255 120.994 77.0081 119.617 77.0081C119.388 77.0081 119.388 77.0081 119.158 77.0081L117.094 75.4026L109.523 67.8339C109.523 67.6045 109.752 67.3752 109.752 66.9165C109.752 65.7697 108.835 64.6229 107.458 64.6229C106.311 64.6229 105.164 65.5403 105.164 66.9165Z" fill="#0E46BB"/>
<path opacity="0.2" d="M119.164 66.9166C119.164 68.0633 120.082 69.2101 121.458 69.2101C121.688 69.2101 121.917 69.2101 122.146 68.9808L131.094 77.9256C130.864 78.3843 130.635 78.6137 130.635 79.3017C130.635 80.4485 131.553 81.5953 132.929 81.5953C134.306 81.5953 135.223 80.6779 135.223 79.3017C135.223 77.9256 134.306 77.0082 132.929 77.0082C132.7 77.0082 132.7 77.0082 132.47 77.0082L123.294 67.834C123.523 67.6046 123.523 67.1459 123.523 66.6872C123.523 65.5405 122.605 64.3937 121.229 64.3937C120.311 64.623 119.164 65.5404 119.164 66.9166Z" fill="#0E46BB"/>
<path opacity="0.2" d="M141.185 56.8254C141.185 57.2843 140.956 57.9725 140.956 58.4314H114.343C113.884 59.1196 113.196 59.5784 112.279 59.5784C111.131 59.5784 109.984 58.6608 109.984 57.2843C109.984 55.9078 110.902 54.9901 112.279 54.9901C113.196 54.9901 114.114 55.6784 114.343 56.596H141.185V56.8254Z" fill="#0E46BB"/>
<path opacity="0.2" d="M138.43 71.0452C138.201 71.7333 138.201 72.4213 137.971 72.88L133.842 68.7516C133.612 68.7516 133.383 68.7516 133.154 68.7516C132.006 68.7516 130.859 67.8342 130.859 66.4581C130.859 65.3113 131.777 64.1646 133.154 64.1646C134.301 64.1646 135.448 65.082 135.448 66.4581C135.448 66.9168 135.448 67.1462 135.218 67.6049L138.43 71.0452Z" fill="#0E46BB"/>
<path opacity="0.2" d="M127.425 107.512C127.196 108.201 126.737 108.659 126.508 109.118H113.431L107.466 115.081L107.007 114.622C107.237 114.852 107.237 115.311 107.237 115.769C107.237 116.916 106.319 118.063 104.943 118.063C103.796 118.063 102.648 117.145 102.648 115.769C102.648 114.393 103.566 113.476 104.943 113.476C105.401 113.476 105.86 113.705 106.09 113.934L112.743 107.512H127.425Z" fill="#0E46BB"/>
<path opacity="0.2" d="M124.431 113.017C124.201 113.705 123.743 114.163 123.284 114.622H114.566L108.601 120.585C108.831 120.815 108.831 121.273 108.831 121.503C108.831 122.65 107.913 123.796 106.536 123.796C105.389 123.796 104.242 122.879 104.242 121.503C104.242 120.356 105.16 119.209 106.536 119.209C106.766 119.209 106.995 119.209 107.225 119.439L113.878 112.787H124.431V113.017Z" fill="#0E46BB"/>
<path opacity="0.2" d="M100.59 128.613C100.59 127.466 99.6722 126.319 98.2957 126.319C96.9192 126.319 96.0015 127.237 96.0015 128.613C96.0015 128.842 96.0015 129.072 96.0015 129.072L85.9071 139.163C85.6777 138.934 85.2189 138.934 84.9895 138.934C83.8424 138.934 82.6953 139.851 82.6953 141.228C82.6953 142.374 83.613 143.521 84.9895 143.521C86.1366 143.521 87.2837 142.604 87.2837 141.228C87.2837 140.998 87.2836 140.769 87.0542 140.539L96.9192 130.677C97.1486 130.907 97.6074 130.907 98.0662 130.907C99.4428 130.907 100.59 129.76 100.59 128.613Z" fill="#0E46BB"/>
<path opacity="0.2" d="M99.9016 116.916C99.9016 115.769 98.9839 114.623 97.6074 114.623C96.2309 114.623 95.3133 115.54 95.3133 116.916C95.3133 117.145 95.3132 117.375 95.5427 117.604L85.9071 127.237C85.6777 127.008 85.2189 127.008 84.9895 127.008C83.8424 127.008 82.6953 127.925 82.6953 129.301C82.6953 130.448 83.613 131.595 84.9895 131.595C86.1366 131.595 87.2837 130.677 87.2837 129.301C87.2837 129.072 87.2836 128.843 87.0542 128.613L96.6898 118.98C96.9192 119.21 97.378 119.21 97.6074 119.21C98.9839 119.21 99.9016 118.292 99.9016 116.916Z" fill="#0E46BB"/>
<path opacity="0.2" d="M86.3444 114.852C86.3444 115.998 85.4267 117.145 84.0502 117.145C83.5913 117.145 83.3619 117.145 83.1325 116.916C83.1325 117.145 82.9031 117.145 82.9031 117.375C82.6737 117.604 82.4443 118.063 82.2148 118.292V118.521L77.8559 122.879V143.98C77.3971 143.521 76.7088 143.292 76.25 142.833V122.191L81.0678 117.375C81.2972 117.145 81.5266 116.916 81.5266 116.457C81.756 116.228 81.9854 115.998 82.2148 115.54C82.2148 115.31 81.9854 115.081 81.9854 114.852C81.9854 113.705 82.9031 112.558 84.2796 112.558C85.6561 112.558 86.3444 113.705 86.3444 114.852Z" fill="#0E46BB"/>
<path opacity="0.2" d="M78.0996 106.595C78.0996 105.448 77.1819 104.301 75.8054 104.301C74.6584 104.301 73.5113 105.219 73.5113 106.595C73.5113 107.054 73.7407 107.512 73.9701 107.742L66.6288 115.081C66.3993 114.852 65.9405 114.852 65.4817 114.852C64.3346 114.852 63.1875 115.769 63.1875 117.145C63.1875 118.292 64.1052 119.439 65.4817 119.439C66.8582 119.439 67.7758 118.521 67.7758 117.145C67.7758 116.687 67.7758 116.457 67.5464 116.228L67.7758 116.457L74.8878 109.347L74.6584 108.659C74.8878 108.888 75.3466 108.888 75.8054 108.888C77.1819 108.888 78.0996 107.742 78.0996 106.595Z" fill="#0E46BB"/>
<path opacity="0.2" d="M82.9141 104.76C82.9141 105.907 83.8317 107.054 85.2082 107.054C86.3553 107.054 87.5024 106.136 87.5024 104.76C87.5024 104.302 87.273 104.072 87.273 103.613L94.1555 96.7328C94.3849 96.5034 94.3849 96.5034 94.6143 96.2741L94.8438 96.0447C95.0732 96.0447 95.3026 96.0447 95.532 96.0447C96.6791 96.0447 97.8262 95.1273 97.8262 93.7512C97.8262 92.6044 96.9085 91.4576 95.532 91.4576C94.1555 91.4576 93.2378 92.3751 93.2378 93.7512C93.2378 94.2099 93.2378 94.4393 93.4672 94.898L93.2378 95.1273C93.2378 95.3567 93.0084 95.3567 93.0084 95.586L85.8965 102.696C85.6671 102.696 85.4377 102.696 85.2082 102.696C83.8317 102.467 82.9141 103.613 82.9141 104.76Z" fill="#0E46BB"/>
<path opacity="0.2" d="M73.2758 69.4398C73.2758 68.293 72.3582 67.1462 70.9817 67.1462C69.6052 67.1462 68.6875 68.0637 68.6875 69.4398C68.6875 70.3572 69.3758 71.2746 70.064 71.504C70.064 77.6966 69.8346 88.2469 69.8346 89.1643L69.6052 91.4578L76.7171 84.3478C76.9465 84.5772 77.4053 84.5772 77.8642 84.5772C79.0113 84.5772 80.1584 83.6598 80.1584 82.2837C80.1584 80.9075 79.2407 79.9901 77.8642 79.9901C76.4877 79.9901 75.57 80.9075 75.57 82.2837C75.57 82.513 75.57 82.513 75.57 82.7424C75.57 82.9717 75.3406 82.9717 75.3406 83.2011L71.4405 87.1001C71.4405 82.9717 71.6699 74.2562 71.6699 71.504C72.817 71.2746 73.2758 70.5866 73.2758 69.4398Z" fill="#0E46BB"/>
<path opacity="0.2" d="M73.2758 24.7154C73.2758 23.5686 72.3582 22.4219 70.9817 22.4219C69.6052 22.4219 68.6875 23.3393 68.6875 24.7154C68.6875 25.6328 69.1463 26.3209 70.064 26.7796V53.8435C70.064 54.7609 70.064 55.6783 70.064 56.3664C70.064 56.5957 70.064 56.8251 70.064 56.8251C69.1463 57.0544 68.6875 57.9719 68.6875 58.8893C68.6875 60.0361 69.6052 61.1828 70.9817 61.1828C72.3582 61.1828 73.2758 60.2654 73.2758 58.8893C73.2758 57.9719 72.5876 57.0544 71.8993 56.8251C71.8993 56.5957 71.8993 56.3664 71.8993 56.137C71.8993 55.2196 71.8993 54.5315 71.8993 53.6141V26.7796C72.817 26.5503 73.2758 25.6328 73.2758 24.7154Z" fill="#0E46BB"/>
<path opacity="0.2" d="M83.6094 33.66C83.6094 34.5774 84.2976 35.4948 85.2153 35.7242V42.1461C84.2976 42.3755 83.6094 43.2929 83.6094 44.2103C83.6094 45.3571 84.527 46.5039 85.9035 46.5039C87.28 46.5039 88.1977 45.5864 88.1977 44.2103C88.1977 43.2929 87.7389 42.6048 86.8212 42.1461V35.7242C87.5095 35.2655 88.1977 34.5774 88.1977 33.66C88.1977 32.5132 87.28 31.3665 85.9035 31.3665C84.527 31.3665 83.6094 32.5132 83.6094 33.66Z" fill="#0E46BB"/>
<path opacity="0.2" d="M64.5633 25.1738V102.237H63.4162L53.5512 112.099V112.329C53.5512 112.787 53.5512 113.475 53.5512 113.934V122.42C52.863 121.732 52.4041 121.044 51.9453 120.356V113.934C51.9453 113.475 51.9453 112.787 51.9453 112.329C51.9453 111.87 51.9453 111.182 51.9453 110.723V108.43L53.3218 110.264L62.7279 100.861H62.9573V26.3206C63.4162 25.8619 63.875 25.6325 64.5633 25.1738Z" fill="#0E46BB"/>
<path opacity="0.2" d="M38.1743 78.8431C38.1743 79.9899 37.2566 81.1367 35.8801 81.1367C35.1919 81.1367 34.733 80.9073 34.2742 80.4486C33.8154 79.9899 33.5859 79.5312 33.5859 78.8431C33.5859 78.6138 33.5859 78.1551 33.8154 77.9257C34.0448 77.2376 34.5036 76.7789 35.1919 76.5496V39.8528C34.733 39.8528 34.5036 39.3941 34.2742 39.1647C34.5036 39.1647 34.9624 39.1648 35.1919 38.9354C35.8801 38.9354 36.7978 38.706 37.9449 38.4767C37.7154 38.9354 37.2566 39.3941 36.7978 39.6235V76.5496C37.7154 77.2376 38.1743 77.9257 38.1743 78.8431Z" fill="#0E46BB"/>
<path opacity="0.2" d="M51.4808 93.9804L44.8277 100.632C44.8277 100.861 44.8277 100.861 44.8277 101.09C44.8277 102.237 43.91 103.384 42.5335 103.384C42.0747 103.384 41.6158 103.155 41.3864 102.925C40.6982 102.467 40.4688 101.778 40.4688 101.09C40.4688 100.861 40.4688 100.861 40.4688 100.632C40.6982 99.4849 41.6158 98.7969 42.7629 98.7969C43.2218 98.7969 43.6806 99.0262 43.91 99.2556L49.8749 93.2924V34.3482C50.3337 34.1189 51.0219 33.6601 51.4808 33.4308V93.9804Z" fill="#0E46BB"/>
<path opacity="0.2" d="M112.508 29.3034H94.8433C94.6139 30.221 93.6962 30.6799 92.7785 30.6799C91.6315 30.6799 90.4844 29.7622 90.4844 28.3857C90.4844 27.0092 91.402 26.0916 92.7785 26.0916C93.6962 26.0916 94.6139 26.7798 94.8433 27.468H109.755C110.673 28.1563 111.591 28.6151 112.508 29.3034Z" fill="#0E46BB"/>
<path opacity="0.2" d="M125.588 36.4132H94.6167C94.3873 37.3309 93.4697 38.0191 92.552 38.0191C91.4049 38.0191 90.2578 37.1014 90.2578 35.7249C90.2578 34.5779 91.1755 33.4308 92.552 33.4308C93.4697 33.4308 94.1579 33.8896 94.6167 34.5779H121.917C122.835 35.0367 123.753 35.4955 124.441 35.9544C124.9 36.1838 125.129 36.4132 125.588 36.4132Z" fill="#0E46BB"/>
<path opacity="0.2" d="M96.9035 39.6234C95.7565 39.6234 94.6094 40.5411 94.6094 41.9176C94.6094 43.2941 95.527 44.2117 96.9035 44.2117C97.8212 44.2117 98.5095 43.7529 98.9683 43.0647H135.446C135.675 43.9823 136.593 44.4412 137.51 44.4412C138.657 44.4412 139.805 43.5235 139.805 42.147C139.805 40.7705 138.887 39.8528 137.51 39.8528C136.593 39.8528 135.675 40.5411 135.446 41.2293H98.9683C98.7389 40.3117 97.8212 39.6234 96.9035 39.6234Z" fill="#0E46BB"/>
<path opacity="0.2" d="M142.335 47.6512C142.335 48.11 142.335 48.7983 142.105 49.2571H92.7808C92.322 49.9454 91.6337 50.6336 90.716 50.6336C89.569 50.6336 88.4219 49.7159 88.4219 48.3394C88.4219 47.1924 89.3395 46.0453 90.716 46.0453C91.6337 46.0453 92.5514 46.7335 92.7808 47.6512H142.335Z" fill="#0E46BB"/>
<path opacity="0.2" d="M102.637 23.1116C102.178 23.7999 101.49 24.2587 100.802 24.2587C99.6549 24.2587 98.5078 23.341 98.5078 21.9645C98.5078 21.7351 98.5078 21.2763 98.7372 21.0469C100.114 21.7351 101.261 22.4234 102.637 23.1116Z" fill="#0E46BB"/>
<path opacity="0.2" d="M93.6875 57.0543C93.6875 57.9717 94.3758 58.8891 95.2934 59.1185V84.1181C94.3758 84.3475 93.6875 85.2649 93.6875 86.1823C93.6875 87.3291 94.6052 88.4759 95.9817 88.4759C97.1288 88.4759 98.2758 87.5585 98.2758 86.1823C98.2758 85.2649 97.817 84.5769 96.8993 84.1181V59.3478V59.1185C97.5876 58.6598 98.0464 57.9717 98.0464 57.0543C98.0464 55.9075 97.1288 54.7607 95.7522 54.7607C94.8346 54.7607 93.6875 55.9075 93.6875 57.0543Z" fill="#0E46BB"/>
<path opacity="0.2" d="M99.8864 57.0543C99.8864 57.9717 100.575 58.8891 101.263 59.1185V95.1272L90.2509 106.136L90.4803 106.366C90.2509 106.136 89.7921 106.136 89.3332 106.136C88.1861 106.136 87.0391 107.054 87.0391 108.43C87.0391 109.806 87.9567 110.723 89.3332 110.723C90.4803 110.723 91.6274 109.806 91.6274 108.43C91.6274 107.971 91.6274 107.742 91.398 107.283L102.869 95.8152V59.1185C103.787 58.8891 104.245 57.9717 104.245 57.0543C104.245 55.9075 103.328 54.7607 101.951 54.7607C100.575 54.7607 99.8864 55.9075 99.8864 57.0543Z" fill="#0E46BB"/>
<path opacity="0.2" d="M87.9657 57.0543C87.9657 57.9717 88.4246 58.6598 89.1128 59.1185V90.9988L84.5245 95.5859C84.0657 96.0446 83.6068 96.5033 82.9186 97.1914C82.4597 97.6501 82.2303 97.8794 81.7715 98.3381C81.5421 98.3381 81.3127 98.1088 81.0832 98.1088C79.9361 98.1088 78.7891 99.0262 78.7891 100.402C78.7891 101.778 79.7067 102.696 81.0832 102.696C82.2303 102.696 83.3774 101.778 83.3774 100.402C83.3774 99.9436 83.3774 99.7143 83.148 99.4849C83.3774 99.2556 83.8362 98.7968 84.0657 98.5675C84.5245 98.1088 84.9833 97.6501 85.6716 96.962L90.7188 91.9162V59.1185C91.6364 58.8891 92.3247 57.9717 92.3247 57.0543C92.3247 55.9075 91.407 54.7607 90.0305 54.7607C88.654 54.7607 87.9657 55.9075 87.9657 57.0543Z" fill="#0E46BB"/>
<path opacity="0.2" d="M81.7604 57.0543C81.7604 57.9717 82.4486 58.8891 83.1369 59.1185V89.164L77.8603 94.4391C77.6309 94.2098 77.172 94.2098 76.9426 94.2098C75.7955 94.2098 74.6484 95.1272 74.6484 96.5033C74.6484 97.8794 75.5661 98.7969 76.9426 98.7969C78.0897 98.7969 79.2368 97.8794 79.2368 96.5033C79.2368 96.274 79.2368 96.0446 79.0074 95.8152L84.9722 89.852V59.1185C85.8899 58.8891 86.3487 57.9717 86.3487 57.0543C86.3487 55.9075 85.431 54.7607 84.0545 54.7607C82.678 54.7607 81.7604 55.9075 81.7604 57.0543Z" fill="#0E46BB"/>
<path opacity="0.2" d="M119.163 120.586C118.704 121.274 118.016 121.962 117.557 122.65L115.492 120.586H119.163Z" fill="#0E46BB"/>
<path opacity="0.2" d="M112.052 128.843C111.364 129.302 110.905 129.99 110.446 130.449H108.84C108.382 131.137 107.693 131.596 107.005 131.596C105.858 131.596 104.711 130.678 104.711 129.302C104.711 128.155 105.629 127.008 107.005 127.008C108.152 127.008 108.84 127.696 109.07 128.613H112.052V128.843Z" fill="#0E46BB"/>
<path opacity="0.4" fill-rule="evenodd" clip-rule="evenodd" d="M86.3711 141.352C74.5436 131.23 52.8167 107.047 48.9995 80.7083C45.8671 59.0946 44.7788 52.015 44.5342 50.6811C55.383 42.1712 78.8077 24.8065 86 23.2083C87.3206 22.9148 88.1567 22.6281 88.614 22.3524C87.3976 21.9578 86.3131 21.7335 85.4129 21.7335C80.3657 21.7335 69.8125 28.1555 62.2417 32.9719C57.424 36.1829 52.6062 38.9351 48.4767 40.9993C48.4323 40.9993 48.0865 41.1284 47.5244 41.3383C45.1851 42.2117 39.0994 44.4841 35.3999 44.669C34.7117 44.8983 34.4823 45.1277 34.2529 45.3571C34.2529 45.4521 34.2135 45.5471 34.1674 45.6584C34.1022 45.8158 34.0234 46.0058 34.0234 46.2745C35.1705 56.8248 37.9235 73.5677 44.3472 94.6683C52.6062 120.127 75.3185 135.723 84.7246 141.227C84.954 141.457 85.4129 141.457 85.6423 141.457C85.819 141.457 86.1318 141.457 86.3711 141.352Z" fill="black"/>
<path d="M85.4324 148.108C84.0558 148.108 82.9088 147.65 81.5323 146.962C62.7201 135.953 47.3491 119.668 40.696 103.384C40.2372 102.696 40.0078 101.779 39.7784 101.091V100.861C36.5665 93.5219 31.9782 73.7974 30.1428 63.4764C26.2428 41.4584 27.3898 40.541 35.8783 38.7061C39.0901 38.0181 43.6784 36.8713 49.4139 33.8897C54.2316 31.1374 58.3611 28.6145 62.0318 26.321C73.5027 19.4403 79.2381 16 85.2029 16C88.8736 16 92.7737 17.3761 99.1974 20.5871C102.868 22.6513 106.768 24.9448 110.668 27.4677C119.386 32.7429 128.792 38.4768 135.675 38.4768C137.969 38.4768 139.804 39.3942 141.41 40.9997C142.787 42.6051 143.475 44.8987 143.245 47.1922C143.245 47.1922 143.245 48.339 143.016 49.2564C140.951 65.77 138.198 79.3019 134.528 90.999C133.381 94.4393 132.233 97.6503 131.086 100.632C130.857 101.091 130.628 101.779 130.398 102.237C124.433 116.457 117.092 126.32 105.621 135.723C103.786 137.329 101.95 138.705 99.1974 140.769C91.856 146.044 88.4148 148.108 85.4324 148.108ZM85.4324 22.8806C80.844 22.8806 73.2733 27.4677 65.4731 32.5135C55.6081 38.7061 44.5961 45.5868 35.6489 45.8161C35.4194 45.8161 35.19 46.0455 34.9606 46.2748C34.9606 46.5042 34.7312 46.5042 34.7312 46.7335C35.8783 57.0545 38.6313 73.7974 45.055 94.898C53.0845 119.898 75.7968 135.264 85.2029 140.769C85.4324 140.769 85.6618 140.998 85.6618 140.998C85.8912 140.998 85.8912 140.998 86.1206 140.769C89.5619 138.705 94.8385 135.264 100.574 130.448C109.292 123.109 120.763 110.953 125.81 94.6687C126.727 91.6871 127.645 88.7055 128.333 85.9532C133.151 68.5222 135.216 54.761 136.134 46.2748C136.134 46.0455 136.134 45.8161 135.904 45.8161L135.675 45.5868C126.957 45.5868 115.486 38.4768 105.392 32.2842C97.362 27.4677 89.7913 22.8806 85.4324 22.8806Z" fill="url(#paint1_linear_901_7094)"/>
<path d="M40.9275 103.29L40.918 103.266L40.904 103.245C40.5556 102.723 40.3484 102.063 40.1565 101.452C40.1135 101.315 40.0713 101.18 40.0284 101.05V100.861V100.809L40.0074 100.761C38.411 97.1132 36.4653 90.3664 34.687 83.2265C32.9102 76.0925 31.3055 68.5868 30.389 63.4328C29.4141 57.9287 28.7561 53.7515 28.4488 50.5513C28.1411 47.3462 28.1883 45.1474 28.6063 43.5873C29.0191 42.0468 29.7933 41.1278 30.9739 40.4729C32.176 39.806 33.8013 39.4109 35.9307 38.9506C39.1545 38.2599 43.7666 37.1072 49.5292 34.1115L49.5293 34.1117L49.5379 34.1067C54.3586 31.3528 58.4905 28.8285 62.1624 26.5342C67.901 23.0919 72.1901 20.5196 75.7896 18.806C79.3855 17.0941 82.2722 16.25 85.2029 16.25C88.8089 16.25 92.6617 17.6 99.0801 20.808C102.746 22.8698 106.64 25.1596 110.532 27.6776L110.532 27.6777L110.539 27.6816L110.804 27.8419C115.079 30.4291 119.524 33.1189 123.75 35.1752C128.059 37.2714 132.174 38.7268 135.675 38.7268C137.888 38.7268 139.66 39.6063 141.227 41.1696C142.551 42.7188 143.22 44.9396 142.997 47.1674L142.995 47.1798V47.1922V47.1923V47.1927L142.995 47.1948L142.995 47.2037L142.995 47.2399C142.995 47.2574 142.994 47.2794 142.994 47.3055C142.993 47.3271 142.993 47.3515 142.992 47.3784C142.988 47.4975 142.981 47.6659 142.967 47.8625C142.939 48.2579 142.883 48.7575 142.774 49.1958L142.77 49.2104L142.768 49.2254C140.705 65.7279 137.954 79.2436 134.29 90.9219C133.145 94.3541 132.001 97.5571 130.857 100.531C130.74 100.768 130.624 101.057 130.513 101.335L130.51 101.342C130.394 101.631 130.284 101.907 130.175 102.126L130.171 102.133L130.168 102.141C124.218 116.324 116.901 126.153 105.463 135.53L105.462 135.53L105.456 135.535C103.63 137.133 101.803 138.503 99.0496 140.567C95.3793 143.205 92.6956 145.031 90.5604 146.197C88.4256 147.364 86.8631 147.858 85.4324 147.858C84.1189 147.858 83.017 147.424 81.6515 146.742C62.8773 135.753 47.554 119.509 40.9275 103.29Z" stroke="url(#paint2_linear_901_7094)" stroke-width="0.5"/>
<path d="M83.0961 89.5604C82.0429 89.5604 81.1402 89.1056 80.3879 88.3477L72.5642 80.465C71.8119 79.7071 71.8119 78.6459 72.5642 77.888L75.5733 74.8562C76.3256 74.0982 77.3788 74.0982 78.1311 74.8562L82.0429 78.7975C82.7952 79.5555 83.8484 79.5555 84.6006 78.7975L96.0353 67.2767C96.7875 66.5188 97.8407 66.5188 98.593 67.2767L101.602 70.3085C102.354 71.0665 102.354 72.1276 101.602 72.8855L85.8043 88.3477C85.052 89.1056 84.1493 89.5604 83.0961 89.5604Z" fill="#1E1F28"/>
<defs>
<linearGradient id="paint0_linear_901_7094" x1="95.8359" y1="141.708" x2="71.3359" y2="37.7083" gradientUnits="userSpaceOnUse">
<stop stop-color="#D73CCE"/>
<stop offset="1" stop-color="#0646BA"/>
</linearGradient>
<linearGradient id="paint1_linear_901_7094" x1="-1.15625" y1="22.7083" x2="128.115" y2="128.103" gradientUnits="userSpaceOnUse">
<stop stop-color="#D73CCE"/>
<stop offset="1" stop-color="#0646BA"/>
</linearGradient>
<linearGradient id="paint2_linear_901_7094" x1="38" y1="38.5" x2="124.5" y2="110" gradientUnits="userSpaceOnUse">
<stop stop-color="white" stop-opacity="0.6"/>
<stop offset="1" stop-color="white" stop-opacity="0.35"/>
</linearGradient>
</defs>
</svg>
